# Blender 5.2.0 LTS
# www.blender.org
mtllib chicken_slap.mtl
o ChickenSlap
v 4.340000 1.510000 -0.480000
v 4.455777 1.598445 -0.395884
v 4.295778 1.598445 -0.343896
v 4.196892 1.598446 -0.480000
v 4.295778 1.598445 -0.616104
v 4.455777 1.598445 -0.564116
v 4.384222 1.741555 -0.343896
v 4.224223 1.741555 -0.395884
v 4.224223 1.741555 -0.564116
v 4.384222 1.741555 -0.616104
v 4.483109 1.741554 -0.480000
v 4.340000 1.830000 -0.480000
v 4.314007 1.533895 -0.400001
v 4.408051 1.533895 -0.430558
v 4.382059 1.585882 -0.350558
v 4.476104 1.585882 -0.480000
v 4.408051 1.533895 -0.529442
v 4.255883 1.533896 -0.480000
v 4.229890 1.585882 -0.400000
v 4.314007 1.533895 -0.559999
v 4.229890 1.585882 -0.559999
v 4.382059 1.585882 -0.609442
v 4.492169 1.670000 -0.430558
v 4.492169 1.670000 -0.529442
v 4.340000 1.670000 -0.320000
v 4.434046 1.670000 -0.350557
v 4.187831 1.670000 -0.430558
v 4.245955 1.670000 -0.350557
v 4.245955 1.670000 -0.609443
v 4.187831 1.670000 -0.529442
v 4.434046 1.670000 -0.609443
v 4.340000 1.670000 -0.640000
v 4.450110 1.754118 -0.400000
v 4.297941 1.754118 -0.350558
v 4.203897 1.754118 -0.480000
v 4.297941 1.754118 -0.609442
v 4.450110 1.754118 -0.559999
v 4.365993 1.806105 -0.400001
v 4.424117 1.806104 -0.480000
v 4.271949 1.806105 -0.430558
v 4.271949 1.806105 -0.529442
v 4.365993 1.806105 -0.559999
v 4.340000 1.510000 0.480000
v 4.455777 1.598445 0.564116
v 4.295778 1.598445 0.616104
v 4.196892 1.598446 0.480000
v 4.295778 1.598445 0.343896
v 4.455777 1.598445 0.395884
v 4.384222 1.741555 0.616104
v 4.224223 1.741555 0.564116
v 4.224223 1.741555 0.395884
v 4.384222 1.741555 0.343896
v 4.483109 1.741554 0.480000
v 4.340000 1.830000 0.480000
v 4.314007 1.533895 0.559999
v 4.408051 1.533895 0.529442
v 4.382059 1.585882 0.609442
v 4.476104 1.585882 0.480000
v 4.408051 1.533895 0.430558
v 4.255883 1.533896 0.480000
v 4.229890 1.585882 0.559999
v 4.314007 1.533895 0.400001
v 4.229890 1.585882 0.400000
v 4.382059 1.585882 0.350558
v 4.492169 1.670000 0.529442
v 4.492169 1.670000 0.430558
v 4.340000 1.670000 0.640000
v 4.434046 1.670000 0.609443
v 4.187831 1.670000 0.529442
v 4.245955 1.670000 0.609443
v 4.245955 1.670000 0.350557
v 4.187831 1.670000 0.430558
v 4.434046 1.670000 0.350557
v 4.340000 1.670000 0.320000
v 4.450110 1.754118 0.559999
v 4.297941 1.754118 0.609442
v 4.203897 1.754118 0.480000
v 4.297941 1.754118 0.350558
v 4.450110 1.754118 0.400000
v 4.365993 1.806105 0.559999
v 4.424117 1.806104 0.480000
v 4.271949 1.806105 0.529442
v 4.271949 1.806105 0.430558
v 4.365993 1.806105 0.400001
v 4.377225 0.303151 -0.144296
v 4.215225 0.303151 -0.097507
v 4.115103 0.303152 -0.220000
v 4.215225 0.303151 -0.342493
v 4.377225 0.303151 -0.295704
v 4.304775 0.576849 -0.097507
v 4.142776 0.576849 -0.144296
v 4.142776 0.576849 -0.295704
v 4.304775 0.576849 -0.342493
v 4.404897 0.576848 -0.220000
v 4.233683 0.179700 -0.148001
v 4.302585 0.279124 -0.103502
v 4.397805 0.279125 -0.220000
v 4.148514 0.279125 -0.148000
v 4.233683 0.179700 -0.291999
v 4.148514 0.279125 -0.292000
v 4.302585 0.279124 -0.336498
v 4.414072 0.440000 -0.175502
v 4.414072 0.440000 -0.264498
v 4.260000 0.440000 -0.076000
v 4.355222 0.440000 -0.103502
v 4.105929 0.440000 -0.175502
v 4.164779 0.440000 -0.103502
v 4.164779 0.440000 -0.336498
v 4.105929 0.440000 -0.264498
v 4.355222 0.440000 -0.336498
v 4.260000 0.440000 -0.364000
v 4.371487 0.600875 -0.148000
v 4.217416 0.600876 -0.103502
v 4.122195 0.600875 -0.220000
v 4.217416 0.600876 -0.336498
v 4.371487 0.600875 -0.292000
v 4.286318 0.700300 -0.148001
v 4.286318 0.700300 -0.291999
v 4.377225 0.303151 0.295704
v 4.215225 0.303151 0.342493
v 4.115103 0.303152 0.220000
v 4.215225 0.303151 0.097507
v 4.377225 0.303151 0.144296
v 4.304775 0.576849 0.342493
v 4.142776 0.576849 0.295704
v 4.142776 0.576849 0.144296
v 4.304775 0.576849 0.097507
v 4.404897 0.576848 0.220000
v 4.233683 0.179700 0.291999
v 4.302585 0.279124 0.336498
v 4.397805 0.279125 0.220000
v 4.148514 0.279125 0.292000
v 4.233683 0.179700 0.148001
v 4.148514 0.279125 0.148000
v 4.302585 0.279124 0.103502
v 4.414072 0.440000 0.264498
v 4.414072 0.440000 0.175502
v 4.260000 0.440000 0.364000
v 4.355222 0.440000 0.336498
v 4.105929 0.440000 0.264498
v 4.164779 0.440000 0.336498
v 4.164779 0.440000 0.103502
v 4.105929 0.440000 0.175502
v 4.355222 0.440000 0.103502
v 4.260000 0.440000 0.076000
v 4.371487 0.600875 0.292000
v 4.217416 0.600876 0.336498
v 4.122195 0.600875 0.220000
v 4.217416 0.600876 0.103502
v 4.371487 0.600875 0.148000
v 4.286318 0.700300 0.291999
v 4.286318 0.700300 0.148001
v -0.192000 0.600000 0.332000
v -0.192000 0.628000 0.360000
v -0.220000 0.628000 0.332000
v -0.192000 1.252000 0.360000
v -0.192000 1.280000 0.332000
v -0.220000 1.252000 0.332000
v -0.192000 0.600000 -0.332000
v -0.220000 0.628000 -0.332000
v -0.192000 0.628000 -0.360000
v -0.192000 1.280000 -0.332000
v -0.192000 1.252000 -0.360000
v -0.220000 1.252000 -0.332000
v 2.652000 0.600000 0.332000
v 2.680000 0.628000 0.332000
v 2.652000 0.628000 0.360000
v 2.652000 1.280000 0.332000
v 2.652000 1.252000 0.360000
v 2.680000 1.252000 0.332000
v 2.652000 0.600000 -0.332000
v 2.652000 0.628000 -0.360000
v 2.680000 0.628000 -0.332000
v 2.652000 1.280000 -0.332000
v 2.680000 1.252000 -0.332000
v 2.652000 1.252000 -0.360000
v 2.468000 0.240000 0.932000
v 2.468000 0.268000 0.960000
v 2.440000 0.268000 0.932000
v 2.468000 2.132000 0.960000
v 2.468000 2.160000 0.932000
v 2.440000 2.132000 0.932000
v 2.468000 0.240000 -0.932000
v 2.440000 0.268000 -0.932000
v 2.468000 0.268000 -0.960000
v 2.468000 2.160000 -0.932000
v 2.468000 2.132000 -0.960000
v 2.440000 2.132000 -0.932000
v 4.332000 0.240000 0.932000
v 4.360000 0.268000 0.932000
v 4.332000 0.268000 0.960000
v 4.332000 2.160000 0.932000
v 4.332000 2.132000 0.960000
v 4.360000 2.132000 0.932000
v 4.332000 0.240000 -0.932000
v 4.332000 0.268000 -0.960000
v 4.360000 0.268000 -0.932000
v 4.332000 2.160000 -0.932000
v 4.360000 2.132000 -0.932000
v 4.332000 2.132000 -0.960000
v 4.068000 0.870000 0.232000
v 4.068000 0.898000 0.260000
v 4.040000 0.898000 0.232000
v 4.068000 1.302000 0.260000
v 4.068000 1.330000 0.232000
v 4.040000 1.302000 0.232000
v 4.068000 0.870000 -0.232000
v 4.040000 0.898000 -0.232000
v 4.068000 0.898000 -0.260000
v 4.068000 1.330000 -0.232000
v 4.068000 1.302000 -0.260000
v 4.040000 1.302000 -0.232000
v 5.132000 0.870000 0.232000
v 5.160000 0.898000 0.232000
v 5.132000 0.898000 0.260000
v 5.132000 1.330000 0.232000
v 5.132000 1.302000 0.260000
v 5.160000 1.302000 0.232000
v 5.132000 0.870000 -0.232000
v 5.132000 0.898000 -0.260000
v 5.160000 0.898000 -0.232000
v 5.132000 1.330000 -0.232000
v 5.160000 1.302000 -0.232000
v 5.132000 1.302000 -0.260000
v 5.048000 0.990000 0.102000
v 5.048000 1.018000 0.130000
v 5.020000 1.018000 0.102000
v 5.048000 1.182000 0.130000
v 5.048000 1.210000 0.102000
v 5.020000 1.182000 0.102000
v 5.048000 0.990000 -0.102000
v 5.020000 1.018000 -0.102000
v 5.048000 1.018000 -0.130000
v 5.048000 1.210000 -0.102000
v 5.048000 1.182000 -0.130000
v 5.020000 1.182000 -0.102000
v 5.191999 0.990000 0.102000
v 5.220000 1.018000 0.102000
v 5.191999 1.018000 0.130000
v 5.191999 1.210000 0.102000
v 5.191999 1.182000 0.130000
v 5.220000 1.182000 0.102000
v 5.191999 0.990000 -0.102000
v 5.191999 1.018000 -0.130000
v 5.220000 1.018000 -0.102000
v 5.191999 1.210000 -0.102000
v 5.220000 1.182000 -0.102000
v 5.191999 1.182000 -0.130000
v 2.548000 2.100000 0.322000
v 2.548000 2.128000 0.350000
v 2.520000 2.128000 0.322000
v 2.548000 2.552000 0.350000
v 2.548000 2.580000 0.322000
v 2.520000 2.552000 0.322000
v 2.548000 2.100000 -0.322000
v 2.520000 2.128000 -0.322000
v 2.548000 2.128000 -0.350000
v 2.548000 2.580000 -0.322000
v 2.548000 2.552000 -0.350000
v 2.520000 2.552000 -0.322000
v 2.852000 2.100000 0.322000
v 2.880000 2.128000 0.322000
v 2.852000 2.128000 0.350000
v 2.852000 2.580000 0.322000
v 2.852000 2.552000 0.350000
v 2.880000 2.552000 0.322000
v 2.852000 2.100000 -0.322000
v 2.852000 2.128000 -0.350000
v 2.880000 2.128000 -0.322000
v 2.852000 2.580000 -0.322000
v 2.880000 2.552000 -0.322000
v 2.852000 2.552000 -0.350000
v 2.928000 2.090000 0.362000
v 2.928000 2.118000 0.390000
v 2.900000 2.118000 0.362000
v 2.928000 2.882000 0.390000
v 2.928000 2.910000 0.362000
v 2.900000 2.882000 0.362000
v 2.928000 2.090000 -0.362000
v 2.900000 2.118000 -0.362000
v 2.928000 2.118000 -0.390000
v 2.928000 2.910000 -0.362000
v 2.928000 2.882000 -0.390000
v 2.900000 2.882000 -0.362000
v 3.232000 2.090000 0.362000
v 3.260000 2.118000 0.362000
v 3.232000 2.118000 0.390000
v 3.232000 2.910000 0.362000
v 3.232000 2.882000 0.390000
v 3.260000 2.882000 0.362000
v 3.232000 2.090000 -0.362000
v 3.232000 2.118000 -0.390000
v 3.260000 2.118000 -0.362000
v 3.232000 2.910000 -0.362000
v 3.260000 2.882000 -0.362000
v 3.232000 2.882000 -0.390000
v 3.308000 2.090000 0.402000
v 3.308000 2.118000 0.430000
v 3.280000 2.118000 0.402000
v 3.308000 3.082000 0.430000
v 3.308000 3.110000 0.402000
v 3.280000 3.082000 0.402000
v 3.308000 2.090000 -0.402000
v 3.280000 2.118000 -0.402000
v 3.308000 2.118000 -0.430000
v 3.308000 3.110000 -0.402000
v 3.308000 3.082000 -0.430000
v 3.280000 3.082000 -0.402000
v 3.612000 2.090000 0.402000
v 3.640000 2.118000 0.402000
v 3.612000 2.118000 0.430000
v 3.612000 3.110000 0.402000
v 3.612000 3.082000 0.430000
v 3.640000 3.082000 0.402000
v 3.612000 2.090000 -0.402000
v 3.612000 2.118000 -0.430000
v 3.640000 2.118000 -0.402000
v 3.612000 3.110000 -0.402000
v 3.640000 3.082000 -0.402000
v 3.612000 3.082000 -0.430000
v 3.688000 2.090000 0.342000
v 3.688000 2.118000 0.370000
v 3.660000 2.118000 0.342000
v 3.688000 2.722000 0.370000
v 3.688000 2.750000 0.342000
v 3.660000 2.722000 0.342000
v 3.688000 2.090000 -0.342000
v 3.660000 2.118000 -0.342000
v 3.688000 2.118000 -0.370000
v 3.688000 2.750000 -0.342000
v 3.688000 2.722000 -0.370000
v 3.660000 2.722000 -0.342000
v 3.992000 2.090000 0.342000
v 4.020000 2.118000 0.342000
v 3.992000 2.118000 0.370000
v 3.992000 2.750000 0.342000
v 3.992000 2.722000 0.370000
v 4.020000 2.722000 0.342000
v 3.992000 2.090000 -0.342000
v 3.992000 2.118000 -0.370000
v 4.020000 2.118000 -0.342000
v 3.992000 2.750000 -0.342000
v 4.020000 2.722000 -0.342000
v 3.992000 2.722000 -0.370000
v 4.250701 0.150148 -0.245441
v 4.309237 0.166657 -0.220000
v 4.250701 0.150148 -0.194559
v 4.269300 0.729852 -0.245441
v 4.210763 0.713343 -0.220000
v 4.269300 0.729852 -0.194559
v 4.295287 0.179700 -0.165794
v 4.328902 0.179700 -0.207300
v 4.343871 0.201299 -0.185169
v 4.338837 0.205080 -0.169087
v 4.323033 0.201874 -0.159445
v 4.328902 0.179700 -0.232700
v 4.295287 0.179700 -0.274206
v 4.323033 0.201874 -0.280555
v 4.338837 0.205080 -0.270913
v 4.343871 0.201299 -0.254831
v 4.195648 0.179700 -0.245467
v 4.195648 0.179700 -0.194533
v 4.168962 0.201875 -0.203942
v 4.162637 0.204906 -0.220000
v 4.168962 0.201875 -0.236058
v 4.324352 0.700300 -0.245467
v 4.324352 0.700300 -0.194533
v 4.351038 0.678125 -0.203942
v 4.357363 0.675095 -0.220000
v 4.351038 0.678125 -0.236058
v 4.224713 0.700300 -0.165794
v 4.191098 0.700300 -0.207300
v 4.176130 0.678701 -0.185169
v 4.181164 0.674920 -0.169087
v 4.196967 0.678126 -0.159445
v 4.191098 0.700300 -0.232700
v 4.224713 0.700300 -0.274206
v 4.196967 0.678126 -0.280555
v 4.181164 0.674920 -0.270913
v 4.176130 0.678701 -0.254831
v 4.250701 0.150148 0.194559
v 4.309237 0.166657 0.220000
v 4.250701 0.150148 0.245441
v 4.269300 0.729852 0.194559
v 4.210763 0.713343 0.220000
v 4.269300 0.729852 0.245441
v 4.295287 0.179700 0.274206
v 4.328902 0.179700 0.232700
v 4.343871 0.201299 0.254831
v 4.338837 0.205080 0.270913
v 4.323033 0.201874 0.280555
v 4.328902 0.179700 0.207300
v 4.295287 0.179700 0.165794
v 4.323033 0.201874 0.159445
v 4.338837 0.205080 0.169087
v 4.343871 0.201299 0.185169
v 4.195648 0.179700 0.194533
v 4.195648 0.179700 0.245467
v 4.168962 0.201875 0.236058
v 4.162637 0.204906 0.220000
v 4.168962 0.201875 0.203942
v 4.324352 0.700300 0.194533
v 4.324352 0.700300 0.245467
v 4.351038 0.678125 0.236058
v 4.357363 0.675095 0.220000
v 4.351038 0.678125 0.203942
v 4.224713 0.700300 0.274206
v 4.191098 0.700300 0.232700
v 4.176130 0.678701 0.254831
v 4.181164 0.674920 0.270913
v 4.196967 0.678126 0.280555
v 4.191098 0.700300 0.207300
v 4.224713 0.700300 0.165794
v 4.196967 0.678126 0.159445
v 4.181164 0.674920 0.169087
v 4.176130 0.678701 0.185169
v 0.883000 0.710000 -0.438000
v 0.883000 0.738000 -0.410000
v 0.855000 0.738000 -0.438000
v 0.883000 1.262000 -0.410000
v 0.883000 1.290000 -0.438000
v 0.855000 1.262000 -0.438000
v 0.883000 0.710000 -0.522000
v 0.855000 0.738000 -0.522000
v 0.883000 0.738000 -0.550000
v 0.883000 1.290000 -0.522000
v 0.883000 1.262000 -0.550000
v 0.855000 1.262000 -0.522000
v 1.977000 0.710000 -0.438000
v 2.005000 0.738000 -0.438000
v 1.977000 0.738000 -0.410000
v 1.977000 1.290000 -0.438000
v 1.977000 1.262000 -0.410000
v 2.005000 1.262000 -0.438000
v 1.977000 0.710000 -0.522000
v 1.977000 0.738000 -0.550000
v 2.005000 0.738000 -0.522000
v 1.977000 1.290000 -0.522000
v 2.005000 1.262000 -0.522000
v 1.977000 1.262000 -0.550000
v 0.783000 0.690000 -0.476400
v 0.783000 0.718000 -0.448400
v 0.755000 0.718000 -0.476400
v 0.783000 1.042000 -0.448400
v 0.783000 1.070000 -0.476400
v 0.755000 1.042000 -0.476400
v 0.783000 0.690000 -0.560400
v 0.755000 0.718000 -0.560400
v 0.783000 0.718000 -0.588400
v 0.783000 1.070000 -0.560400
v 0.783000 1.042000 -0.588400
v 0.755000 1.042000 -0.560400
v 1.277000 0.690000 -0.476400
v 1.305000 0.718000 -0.476400
v 1.277000 0.718000 -0.448400
v 1.277000 1.070000 -0.476400
v 1.277000 1.042000 -0.448400
v 1.305000 1.042000 -0.476400
v 1.277000 0.690000 -0.560400
v 1.277000 0.718000 -0.588400
v 1.305000 0.718000 -0.560400
v 1.277000 1.070000 -0.560400
v 1.305000 1.042000 -0.560400
v 1.277000 1.042000 -0.588400
v 0.568000 0.650000 -0.505200
v 0.568000 0.678000 -0.477200
v 0.540000 0.678000 -0.505200
v 0.568000 0.842000 -0.477200
v 0.568000 0.870000 -0.505200
v 0.540000 0.842000 -0.505200
v 0.568000 0.650000 -0.589200
v 0.540000 0.678000 -0.589200
v 0.568000 0.678000 -0.617200
v 0.568000 0.870000 -0.589200
v 0.568000 0.842000 -0.617200
v 0.540000 0.842000 -0.589200
v 0.832000 0.650000 -0.505200
v 0.860000 0.678000 -0.505200
v 0.832000 0.678000 -0.477200
v 0.832000 0.870000 -0.505200
v 0.832000 0.842000 -0.477200
v 0.860000 0.842000 -0.505200
v 0.832000 0.650000 -0.589200
v 0.832000 0.678000 -0.617200
v 0.860000 0.678000 -0.589200
v 0.832000 0.870000 -0.589200
v 0.860000 0.842000 -0.589200
v 0.832000 0.842000 -0.617200
v 0.883000 0.710000 0.522000
v 0.883000 0.738000 0.550000
v 0.855000 0.738000 0.522000
v 0.883000 1.262000 0.550000
v 0.883000 1.290000 0.522000
v 0.855000 1.262000 0.522000
v 0.883000 0.710000 0.438000
v 0.855000 0.738000 0.438000
v 0.883000 0.738000 0.410000
v 0.883000 1.290000 0.438000
v 0.883000 1.262000 0.410000
v 0.855000 1.262000 0.438000
v 1.977000 0.710000 0.522000
v 2.005000 0.738000 0.522000
v 1.977000 0.738000 0.550000
v 1.977000 1.290000 0.522000
v 1.977000 1.262000 0.550000
v 2.005000 1.262000 0.522000
v 1.977000 0.710000 0.438000
v 1.977000 0.738000 0.410000
v 2.005000 0.738000 0.438000
v 1.977000 1.290000 0.438000
v 2.005000 1.262000 0.438000
v 1.977000 1.262000 0.410000
v 0.783000 0.690000 0.560400
v 0.783000 0.718000 0.588400
v 0.755000 0.718000 0.560400
v 0.783000 1.042000 0.588400
v 0.783000 1.070000 0.560400
v 0.755000 1.042000 0.560400
v 0.783000 0.690000 0.476400
v 0.755000 0.718000 0.476400
v 0.783000 0.718000 0.448400
v 0.783000 1.070000 0.476400
v 0.783000 1.042000 0.448400
v 0.755000 1.042000 0.476400
v 1.277000 0.690000 0.560400
v 1.305000 0.718000 0.560400
v 1.277000 0.718000 0.588400
v 1.277000 1.070000 0.560400
v 1.277000 1.042000 0.588400
v 1.305000 1.042000 0.560400
v 1.277000 0.690000 0.476400
v 1.277000 0.718000 0.448400
v 1.305000 0.718000 0.476400
v 1.277000 1.070000 0.476400
v 1.305000 1.042000 0.476400
v 1.277000 1.042000 0.448400
v 0.568000 0.650000 0.589200
v 0.568000 0.678000 0.617200
v 0.540000 0.678000 0.589200
v 0.568000 0.842000 0.617200
v 0.568000 0.870000 0.589200
v 0.540000 0.842000 0.589200
v 0.568000 0.650000 0.505200
v 0.540000 0.678000 0.505200
v 0.568000 0.678000 0.477200
v 0.568000 0.870000 0.505200
v 0.568000 0.842000 0.477200
v 0.540000 0.842000 0.505200
v 0.832000 0.650000 0.589200
v 0.860000 0.678000 0.589200
v 0.832000 0.678000 0.617200
v 0.832000 0.870000 0.589200
v 0.832000 0.842000 0.617200
v 0.860000 0.842000 0.589200
v 0.832000 0.650000 0.505200
v 0.832000 0.678000 0.477200
v 0.860000 0.678000 0.505200
v 0.832000 0.870000 0.505200
v 0.860000 0.842000 0.505200
v 0.832000 0.842000 0.477200
v -0.112000 1.230000 0.222000
v -0.112000 1.258000 0.250000
v -0.140000 1.258000 0.222000
v -0.112000 1.622000 0.250000
v -0.112000 1.650000 0.222000
v -0.140000 1.622000 0.222000
v -0.112000 1.230000 -0.222000
v -0.140000 1.258000 -0.222000
v -0.112000 1.258000 -0.250000
v -0.112000 1.650000 -0.222000
v -0.112000 1.622000 -0.250000
v -0.140000 1.622000 -0.222000
v 0.112000 1.230000 0.222000
v 0.140000 1.258000 0.222000
v 0.112000 1.258000 0.250000
v 0.112000 1.650000 0.222000
v 0.112000 1.622000 0.250000
v 0.140000 1.622000 0.222000
v 0.112000 1.230000 -0.222000
v 0.112000 1.258000 -0.250000
v 0.140000 1.258000 -0.222000
v 0.112000 1.650000 -0.222000
v 0.140000 1.622000 -0.222000
v 0.112000 1.622000 -0.250000
v -0.342000 1.230000 0.182000
v -0.342000 1.258000 0.210000
v -0.370000 1.258000 0.182000
v -0.342000 1.822000 0.210000
v -0.342000 1.850000 0.182000
v -0.370000 1.822000 0.182000
v -0.342000 1.230000 -0.182000
v -0.370000 1.258000 -0.182000
v -0.342000 1.258000 -0.210000
v -0.342000 1.850000 -0.182000
v -0.342000 1.822000 -0.210000
v -0.370000 1.822000 -0.182000
v -0.138000 1.230000 0.182000
v -0.110000 1.258000 0.182000
v -0.138000 1.258000 0.210000
v -0.138000 1.850000 0.182000
v -0.138000 1.822000 0.210000
v -0.110000 1.822000 0.182000
v -0.138000 1.230000 -0.182000
v -0.138000 1.258000 -0.210000
v -0.110000 1.258000 -0.182000
v -0.138000 1.850000 -0.182000
v -0.110000 1.822000 -0.182000
v -0.138000 1.822000 -0.210000
v -0.572000 1.230000 0.142000
v -0.572000 1.258000 0.170000
v -0.600000 1.258000 0.142000
v -0.572000 1.542000 0.170000
v -0.572000 1.570000 0.142000
v -0.600000 1.542000 0.142000
v -0.572000 1.230000 -0.142000
v -0.600000 1.258000 -0.142000
v -0.572000 1.258000 -0.170000
v -0.572000 1.570000 -0.142000
v -0.572000 1.542000 -0.170000
v -0.600000 1.542000 -0.142000
v -0.388000 1.230000 0.142000
v -0.360000 1.258000 0.142000
v -0.388000 1.258000 0.170000
v -0.388000 1.570000 0.142000
v -0.388000 1.542000 0.170000
v -0.360000 1.542000 0.142000
v -0.388000 1.230000 -0.142000
v -0.388000 1.258000 -0.170000
v -0.360000 1.258000 -0.142000
v -0.388000 1.570000 -0.142000
v -0.360000 1.542000 -0.142000
v -0.388000 1.542000 -0.170000
v -0.162000 -0.590000 0.182000
v -0.162000 -0.562000 0.210000
v -0.190000 -0.562000 0.182000
v -0.162000 0.562000 0.210000
v -0.162000 0.590000 0.182000
v -0.190000 0.562000 0.182000
v -0.162000 -0.590000 -0.182000
v -0.190000 -0.562000 -0.182000
v -0.162000 -0.562000 -0.210000
v -0.162000 0.590000 -0.182000
v -0.162000 0.562000 -0.210000
v -0.190000 0.562000 -0.182000
v 0.162000 -0.590000 0.182000
v 0.190000 -0.562000 0.182000
v 0.162000 -0.562000 0.210000
v 0.162000 0.590000 0.182000
v 0.162000 0.562000 0.210000
v 0.190000 0.562000 0.182000
v 0.162000 -0.590000 -0.182000
v 0.162000 -0.562000 -0.210000
v 0.190000 -0.562000 -0.182000
v 0.162000 0.590000 -0.182000
v 0.190000 0.562000 -0.182000
v 0.162000 0.562000 -0.210000
v -0.182000 0.380000 0.212000
v -0.182000 0.408000 0.240000
v -0.210000 0.408000 0.212000
v -0.182000 0.432000 0.240000
v -0.182000 0.460000 0.212000
v -0.210000 0.432000 0.212000
v -0.182000 0.380000 -0.212000
v -0.210000 0.408000 -0.212000
v -0.182000 0.408000 -0.240000
v -0.182000 0.460000 -0.212000
v -0.182000 0.432000 -0.240000
v -0.210000 0.432000 -0.212000
v 0.182000 0.380000 0.212000
v 0.210000 0.408000 0.212000
v 0.182000 0.408000 0.240000
v 0.182000 0.460000 0.212000
v 0.182000 0.432000 0.240000
v 0.210000 0.432000 0.212000
v 0.182000 0.380000 -0.212000
v 0.182000 0.408000 -0.240000
v 0.210000 0.408000 -0.212000
v 0.182000 0.460000 -0.212000
v 0.210000 0.432000 -0.212000
v 0.182000 0.432000 -0.240000
v -0.182000 0.160000 0.212000
v -0.182000 0.188000 0.240000
v -0.210000 0.188000 0.212000
v -0.182000 0.212000 0.240000
v -0.182000 0.240000 0.212000
v -0.210000 0.212000 0.212000
v -0.182000 0.160000 -0.212000
v -0.210000 0.188000 -0.212000
v -0.182000 0.188000 -0.240000
v -0.182000 0.240000 -0.212000
v -0.182000 0.212000 -0.240000
v -0.210000 0.212000 -0.212000
v 0.182000 0.160000 0.212000
v 0.210000 0.188000 0.212000
v 0.182000 0.188000 0.240000
v 0.182000 0.240000 0.212000
v 0.182000 0.212000 0.240000
v 0.210000 0.212000 0.212000
v 0.182000 0.160000 -0.212000
v 0.182000 0.188000 -0.240000
v 0.210000 0.188000 -0.212000
v 0.182000 0.240000 -0.212000
v 0.210000 0.212000 -0.212000
v 0.182000 0.212000 -0.240000
v -0.182000 -0.060000 0.212000
v -0.182000 -0.032000 0.240000
v -0.210000 -0.032000 0.212000
v -0.182000 -0.008000 0.240000
v -0.182000 0.020000 0.212000
v -0.210000 -0.008000 0.212000
v -0.182000 -0.060000 -0.212000
v -0.210000 -0.032000 -0.212000
v -0.182000 -0.032000 -0.240000
v -0.182000 0.020000 -0.212000
v -0.182000 -0.008000 -0.240000
v -0.210000 -0.008000 -0.212000
v 0.182000 -0.060000 0.212000
v 0.210000 -0.032000 0.212000
v 0.182000 -0.032000 0.240000
v 0.182000 0.020000 0.212000
v 0.182000 -0.008000 0.240000
v 0.210000 -0.008000 0.212000
v 0.182000 -0.060000 -0.212000
v 0.182000 -0.032000 -0.240000
v 0.210000 -0.032000 -0.212000
v 0.182000 0.020000 -0.212000
v 0.210000 -0.008000 -0.212000
v 0.182000 -0.008000 -0.240000
v -0.182000 -0.280000 0.212000
v -0.182000 -0.252000 0.240000
v -0.210000 -0.252000 0.212000
v -0.182000 -0.228000 0.240000
v -0.182000 -0.200000 0.212000
v -0.210000 -0.228000 0.212000
v -0.182000 -0.280000 -0.212000
v -0.210000 -0.252000 -0.212000
v -0.182000 -0.252000 -0.240000
v -0.182000 -0.200000 -0.212000
v -0.182000 -0.228000 -0.240000
v -0.210000 -0.228000 -0.212000
v 0.182000 -0.280000 0.212000
v 0.210000 -0.252000 0.212000
v 0.182000 -0.252000 0.240000
v 0.182000 -0.200000 0.212000
v 0.182000 -0.228000 0.240000
v 0.210000 -0.228000 0.212000
v 0.182000 -0.280000 -0.212000
v 0.182000 -0.252000 -0.240000
v 0.210000 -0.252000 -0.212000
v 0.182000 -0.200000 -0.212000
v 0.210000 -0.228000 -0.212000
v 0.182000 -0.228000 -0.240000
v -0.182000 -0.500000 0.212000
v -0.182000 -0.472000 0.240000
v -0.210000 -0.472000 0.212000
v -0.182000 -0.448000 0.240000
v -0.182000 -0.420000 0.212000
v -0.210000 -0.448000 0.212000
v -0.182000 -0.500000 -0.212000
v -0.210000 -0.472000 -0.212000
v -0.182000 -0.472000 -0.240000
v -0.182000 -0.420000 -0.212000
v -0.182000 -0.448000 -0.240000
v -0.210000 -0.448000 -0.212000
v 0.182000 -0.500000 0.212000
v 0.210000 -0.472000 0.212000
v 0.182000 -0.472000 0.240000
v 0.182000 -0.420000 0.212000
v 0.182000 -0.448000 0.240000
v 0.210000 -0.448000 0.212000
v 0.182000 -0.500000 -0.212000
v 0.182000 -0.472000 -0.240000
v 0.210000 -0.472000 -0.212000
v 0.182000 -0.420000 -0.212000
v 0.210000 -0.448000 -0.212000
v 0.182000 -0.448000 -0.240000
v -0.342000 -0.700000 0.202000
v -0.342000 -0.672000 0.230000
v -0.370000 -0.672000 0.202000
v -0.342000 0.552000 0.230000
v -0.342000 0.580000 0.202000
v -0.370000 0.552000 0.202000
v -0.342000 -0.700000 -0.202000
v -0.370000 -0.672000 -0.202000
v -0.342000 -0.672000 -0.230000
v -0.342000 0.580000 -0.202000
v -0.342000 0.552000 -0.230000
v -0.370000 0.552000 -0.202000
v -0.258000 -0.700000 0.202000
v -0.230000 -0.672000 0.202000
v -0.258000 -0.672000 0.230000
v -0.258000 0.580000 0.202000
v -0.258000 0.552000 0.230000
v -0.230000 0.552000 0.202000
v -0.258000 -0.700000 -0.202000
v -0.258000 -0.672000 -0.230000
v -0.230000 -0.672000 -0.202000
v -0.258000 0.580000 -0.202000
v -0.230000 0.552000 -0.202000
v -0.258000 0.552000 -0.230000
v -0.342000 -0.750000 0.202000
v -0.342000 -0.722000 0.230000
v -0.370000 -0.722000 0.202000
v -0.342000 -0.638000 0.230000
v -0.342000 -0.610000 0.202000
v -0.370000 -0.638000 0.202000
v -0.342000 -0.750000 -0.202000
v -0.370000 -0.722000 -0.202000
v -0.342000 -0.722000 -0.230000
v -0.342000 -0.610000 -0.202000
v -0.342000 -0.638000 -0.230000
v -0.370000 -0.638000 -0.202000
v 0.422000 -0.750000 0.202000
v 0.450000 -0.722000 0.202000
v 0.422000 -0.722000 0.230000
v 0.422000 -0.610000 0.202000
v 0.422000 -0.638000 0.230000
v 0.450000 -0.638000 0.202000
v 0.422000 -0.750000 -0.202000
v 0.422000 -0.722000 -0.230000
v 0.450000 -0.722000 -0.202000
v 0.422000 -0.610000 -0.202000
v 0.450000 -0.638000 -0.202000
v 0.422000 -0.638000 -0.230000
v 0.338000 -0.620000 0.202000
v 0.338000 -0.592000 0.230000
v 0.310000 -0.592000 0.202000
v 0.338000 0.132000 0.230000
v 0.338000 0.160000 0.202000
v 0.310000 0.132000 0.202000
v 0.338000 -0.620000 -0.202000
v 0.310000 -0.592000 -0.202000
v 0.338000 -0.592000 -0.230000
v 0.338000 0.160000 -0.202000
v 0.338000 0.132000 -0.230000
v 0.310000 0.132000 -0.202000
v 0.422000 -0.620000 0.202000
v 0.450000 -0.592000 0.202000
v 0.422000 -0.592000 0.230000
v 0.422000 0.160000 0.202000
v 0.422000 0.132000 0.230000
v 0.450000 0.132000 0.202000
v 0.422000 -0.620000 -0.202000
v 0.422000 -0.592000 -0.230000
v 0.450000 -0.592000 -0.202000
v 0.422000 0.160000 -0.202000
v 0.450000 0.132000 -0.202000
v 0.422000 0.132000 -0.230000
vn 0.1024 -0.9435 0.3151
vn 0.7002 -0.6617 0.2680
vn -0.2680 -0.9435 0.1947
vn -0.2680 -0.9435 -0.1947
vn 0.1024 -0.9435 -0.3151
vn 0.9050 -0.3304 0.2680
vn 0.0247 -0.3304 0.9435
vn -0.8897 -0.3304 0.3151
vn -0.5746 -0.3304 -0.7488
vn 0.5346 -0.3304 -0.7779
vn 0.8026 -0.1256 0.5831
vn -0.3066 -0.1256 0.9435
vn -0.9921 -0.1256 -0.0000
vn -0.3066 -0.1256 -0.9435
vn 0.8026 -0.1256 -0.5831
vn 0.4089 0.6617 0.6284
vn -0.4713 0.6617 0.5831
vn -0.7002 0.6617 -0.2680
vn 0.0385 0.6617 -0.7488
vn 0.7240 0.6617 -0.1947
vn 0.2680 0.9435 -0.1947
vn 0.4911 0.7947 -0.3568
vn 0.4089 0.6617 -0.6284
vn -0.1024 0.9435 -0.3151
vn -0.1876 0.7947 -0.5773
vn -0.4713 0.6617 -0.5831
vn -0.3313 0.9435 -0.0000
vn -0.6071 0.7947 -0.0000
vn -0.7002 0.6617 0.2680
vn -0.1024 0.9435 0.3151
vn -0.1876 0.7947 0.5773
vn 0.0385 0.6617 0.7488
vn 0.2680 0.9435 0.1947
vn 0.4911 0.7947 0.3568
vn 0.7240 0.6617 0.1947
vn 0.8897 0.3304 -0.3151
vn 0.7947 0.1876 -0.5773
vn 0.5746 0.3304 -0.7488
vn -0.0247 0.3304 -0.9435
vn -0.3035 0.1876 -0.9342
vn -0.5346 0.3304 -0.7779
vn -0.9050 0.3304 -0.2680
vn -0.9822 0.1876 -0.0000
vn -0.9050 0.3304 0.2680
vn -0.5346 0.3304 0.7779
vn -0.3035 0.1876 0.9342
vn -0.0247 0.3304 0.9435
vn 0.5746 0.3304 0.7488
vn 0.7947 0.1876 0.5773
vn 0.8897 0.3304 0.3151
vn 0.3066 0.1256 -0.9435
vn 0.3035 -0.1876 -0.9342
vn 0.0247 -0.3304 -0.9435
vn -0.8026 0.1256 -0.5831
vn -0.7947 -0.1876 -0.5774
vn -0.8897 -0.3304 -0.3151
vn -0.8026 0.1256 0.5831
vn -0.7947 -0.1876 0.5773
vn -0.5746 -0.3304 0.7488
vn 0.3066 0.1256 0.9435
vn 0.3035 -0.1876 0.9342
vn 0.5346 -0.3304 0.7779
vn 0.9921 0.1256 -0.0000
vn 0.9822 -0.1876 -0.0000
vn 0.9050 -0.3304 -0.2680
vn 0.4713 -0.6617 -0.5831
vn 0.1876 -0.7947 -0.5773
vn -0.0385 -0.6617 -0.7488
vn -0.4089 -0.6617 -0.6284
vn -0.4911 -0.7947 -0.3568
vn -0.7240 -0.6617 -0.1947
vn -0.7240 -0.6617 0.1947
vn -0.4911 -0.7947 0.3568
vn -0.4089 -0.6617 0.6284
vn 0.7002 -0.6617 -0.2680
vn 0.6071 -0.7947 -0.0000
vn 0.3313 -0.9435 -0.0000
vn -0.0385 -0.6617 0.7488
vn 0.1876 -0.7947 0.5773
vn 0.4713 -0.6617 0.5831
vn -0.7947 -0.1876 -0.5773
vn -0.7947 -0.1876 0.5774
vn 0.9332 -0.1804 0.3109
vn 0.0230 -0.1625 0.9864
vn -0.9139 -0.1797 0.3641
vn -0.5554 -0.1691 -0.8142
vn 0.5139 -0.1681 -0.8412
vn 0.7727 -0.0640 0.6315
vn -0.2770 -0.0601 0.9590
vn -0.9978 -0.0669 -0.0000
vn -0.2770 -0.0601 -0.9590
vn 0.7727 -0.0640 -0.6315
vn 0.4602 0.3942 0.7955
vn 0.0422 0.3836 -0.9225
vn 0.4602 0.3942 -0.7955
vn 0.0422 0.3836 0.9225
vn 0.9139 0.1797 -0.3641
vn 0.7707 0.0963 -0.6299
vn 0.5554 0.1691 -0.8142
vn -0.0230 0.1625 -0.9864
vn -0.2763 0.0904 -0.9568
vn -0.5139 0.1681 -0.8412
vn -0.9332 0.1804 -0.3109
vn -0.9949 0.1006 -0.0000
vn -0.9332 0.1804 0.3109
vn -0.5139 0.1681 0.8412
vn -0.2763 0.0904 0.9568
vn -0.0230 0.1625 0.9864
vn 0.5554 0.1691 0.8142
vn 0.7707 0.0963 0.6299
vn 0.9139 0.1797 0.3641
vn 0.2770 0.0601 -0.9590
vn 0.2763 -0.0904 -0.9568
vn 0.0230 -0.1625 -0.9864
vn -0.7727 0.0640 -0.6315
vn -0.7707 -0.0963 -0.6299
vn -0.9139 -0.1797 -0.3641
vn -0.7727 0.0640 0.6315
vn -0.7707 -0.0963 0.6299
vn -0.5554 -0.1691 0.8142
vn 0.2770 0.0601 0.9590
vn 0.2763 -0.0904 0.9568
vn 0.5139 -0.1681 0.8412
vn 0.9978 0.0669 -0.0000
vn 0.9949 -0.1006 -0.0000
vn 0.9332 -0.1804 -0.3109
vn -0.0422 -0.3836 -0.9225
vn -0.4602 -0.3942 -0.7955
vn -0.4602 -0.3942 0.7955
vn -0.0422 -0.3836 0.9225
vn -0.5773 -0.5774 0.5774
vn -0.5773 0.5774 0.5774
vn -0.5773 -0.5774 -0.5774
vn -0.5773 0.5774 -0.5774
vn 0.5773 -0.5773 0.5774
vn 0.5773 0.5774 0.5774
vn 0.5773 -0.5773 -0.5774
vn 0.5773 0.5774 -0.5774
vn -0.5774 -0.5773 0.5773
vn -0.5774 0.5774 0.5774
vn -0.5774 -0.5773 -0.5773
vn -0.5774 0.5774 -0.5774
vn 0.5773 -0.5774 0.5773
vn 0.5773 -0.5774 -0.5773
vn -0.5774 0.5773 0.5773
vn -0.5774 0.5773 -0.5773
vn 0.5774 -0.5773 0.5774
vn 0.5774 0.5773 0.5774
vn 0.5774 -0.5773 -0.5774
vn 0.5774 0.5773 -0.5774
vn 0.5773 -0.5774 0.5774
vn 0.5773 -0.5774 -0.5774
vn -0.5773 0.5774 0.5773
vn -0.5773 0.5774 -0.5773
vn 0.5773 0.5774 0.5773
vn 0.5773 0.5774 -0.5773
vn -0.5773 -0.5774 0.5773
vn -0.5773 -0.5774 -0.5773
vn -0.5774 0.5773 0.5774
vn -0.5774 0.5773 -0.5774
vn 0.5774 0.5774 0.5773
vn 0.5774 0.5774 -0.5773
vn 0.2714 -0.9625 -0.0000
vn -0.2714 0.9625 -0.0000
vn 0.4934 -0.7687 0.4071
vn 0.4934 -0.7687 -0.4071
vn -0.6254 -0.7803 -0.0000
vn 0.6254 0.7803 -0.0000
vn -0.4934 0.7687 0.4071
vn -0.4934 0.7687 -0.4071
vn -0.5774 -0.5773 0.5774
vn -0.5774 -0.5773 -0.5774
vn 0.5774 -0.5774 0.5773
vn 0.5774 -0.5774 -0.5773
vn -0.5774 -0.5774 0.5773
vn -0.5774 0.5774 0.5773
vn 0.5774 -0.5773 -0.5773
vn 0.5774 0.5773 -0.5773
vn -0.5774 -0.5774 -0.5773
vn -0.5774 0.5774 -0.5773
vn 0.5774 -0.5773 0.5773
vn 0.5774 0.5773 0.5773
vn 0.5774 0.5774 0.5774
vn 0.5774 0.5774 -0.5774
vn -0.5774 -0.5774 -0.5774
vn 0.5774 -0.5774 -0.5774
vn -0.7071 -0.7071 -0.0000
vn -0.7071 -0.0000 0.7071
vn -0.7071 0.7071 -0.0000
vn -0.7071 -0.0000 -0.7071
vn -0.0000 -0.7071 -0.7071
vn -0.0000 0.7071 -0.7071
vn 0.7071 -0.0000 -0.7071
vn 0.7071 -0.7071 -0.0000
vn 0.7071 0.7071 -0.0000
vn 0.7071 -0.0000 0.7071
vn -0.0000 -0.7071 0.7071
vn -0.0000 0.7071 0.7071
vn -0.4730 -0.8811 -0.0000
vn 0.4730 0.8811 -0.0000
vn 0.3798 -0.8724 0.3077
vn 0.3798 -0.8724 -0.3077
vn -0.3798 0.8724 0.3077
vn -0.3798 0.8724 -0.3077
vn -0.0000 -1.0000 -0.0000
vn -1.0000 -0.0000 -0.0000
vn -0.0000 -0.0000 1.0000
vn -0.0000 1.0000 -0.0000
vn -0.0000 -0.0000 -1.0000
vn 1.0000 -0.0000 -0.0000
vn -0.4410 -0.8219 0.3605
vn -0.4410 -0.8219 -0.3605
vn 0.1649 -0.8044 -0.5708
vn 0.1649 -0.8044 0.5708
vn 0.5527 -0.8334 -0.0000
vn 0.4410 0.8219 0.3605
vn -0.1649 0.8044 0.5708
vn -0.5527 0.8334 -0.0000
vn -0.1649 0.8044 -0.5708
vn 0.4410 0.8219 -0.3605
vn 0.5353 -0.3979 0.7451
vn 0.8346 -0.4175 0.3594
vn 0.8219 -0.5696 -0.0000
vn 0.2356 -0.5283 0.8157
vn 0.8346 -0.4175 -0.3594
vn 0.5353 -0.3979 -0.7451
vn 0.2356 -0.5283 -0.8157
vn -0.6452 -0.5527 -0.5274
vn -0.8685 -0.4202 0.2628
vn -0.6452 -0.5527 0.5274
vn -0.8685 -0.4202 -0.2628
vn 0.8685 0.4202 -0.2628
vn 0.6452 0.5527 -0.5274
vn 0.6452 0.5527 0.5274
vn 0.8685 0.4202 0.2628
vn -0.8346 0.4175 0.3594
vn -0.2356 0.5283 0.8157
vn -0.5353 0.3979 0.7451
vn -0.8219 0.5696 -0.0000
vn -0.5353 0.3979 -0.7451
vn -0.8346 0.4175 -0.3594
vn -0.2356 0.5283 -0.8157
vt 0.603637 0.520000
vt 0.624546 0.556216
vt 0.582728 0.556216
vt 0.645455 0.592432
vt 0.666364 0.556216
vt 0.687273 0.592432
vt 0.938182 0.520000
vt 0.959091 0.556216
vt 0.917273 0.556216
vt 0.854546 0.520000
vt 0.875455 0.556216
vt 0.833637 0.556216
vt 0.770909 0.520000
vt 0.791818 0.556216
vt 0.750000 0.556216
vt 0.666364 0.628648
vt 0.561819 0.592432
vt 0.603637 0.592432
vt 0.582728 0.628648
vt 0.896364 0.592432
vt 0.938182 0.592432
vt 0.917273 0.628648
vt 0.812727 0.592432
vt 0.854546 0.592432
vt 0.833637 0.628648
vt 0.729091 0.592432
vt 0.770909 0.592432
vt 0.750000 0.628648
vt 0.624546 0.628648
vt 0.540909 0.628648
vt 0.875455 0.628648
vt 0.791818 0.628648
vt 0.708182 0.628648
vt 0.603637 0.664864
vt 0.645455 0.664864
vt 0.624546 0.701080
vt 0.520000 0.664864
vt 0.561818 0.664864
vt 0.540909 0.701080
vt 0.854546 0.664864
vt 0.896364 0.664864
vt 0.875455 0.701080
vt 0.770909 0.664864
vt 0.812727 0.664864
vt 0.791818 0.701080
vt 0.687273 0.664864
vt 0.729091 0.664864
vt 0.708182 0.701080
vt 0.750000 0.701080
vt 0.729091 0.737296
vt 0.833637 0.701080
vt 0.812727 0.737296
vt 0.917273 0.701080
vt 0.896364 0.737296
vt 0.938182 0.664864
vt 0.582728 0.701080
vt 0.561819 0.737296
vt 0.666364 0.701080
vt 0.645455 0.737296
vt 0.959091 0.628648
vt 0.980000 0.592432
vt 0.708182 0.556216
vt 0.687273 0.520000
vt 0.645455 0.092432
vt 0.687273 0.092432
vt 0.666364 0.128648
vt 0.561819 0.092432
vt 0.603637 0.092432
vt 0.582728 0.128648
vt 0.896364 0.092432
vt 0.938182 0.092432
vt 0.917273 0.128648
vt 0.812727 0.092432
vt 0.854546 0.092432
vt 0.833637 0.128648
vt 0.729091 0.092432
vt 0.770909 0.092432
vt 0.750000 0.128648
vt 0.624546 0.128648
vt 0.540909 0.128648
vt 0.875455 0.128648
vt 0.791818 0.128648
vt 0.708182 0.128648
vt 0.603637 0.164864
vt 0.645455 0.164864
vt 0.624546 0.201080
vt 0.770909 0.164864
vt 0.812727 0.164864
vt 0.791818 0.201080
vt 0.729091 0.164864
vt 0.750000 0.201080
vt 0.561818 0.164864
vt 0.582728 0.201080
vt 0.687273 0.164864
vt 0.854546 0.164864
vt 0.896364 0.164864
vt 0.938182 0.164864
vt 0.520000 0.164864
vt 0.959091 0.128648
vt 0.980000 0.092432
vt 0.791818 0.056216
vt 0.833637 0.056216
vt 0.959091 0.056216
vt 0.582728 0.056216
vt 0.078610 0.360528
vt 0.078610 0.365000
vt 0.077500 0.360528
vt 0.302765 0.020000
vt 0.307500 0.024472
vt 0.302765 0.024472
vt 0.078610 0.254472
vt 0.077500 0.254472
vt 0.078610 0.250000
vt 0.307500 0.132389
vt 0.302765 0.135833
vt 0.302765 0.130528
vt 0.191390 0.360528
vt 0.196051 0.360528
vt 0.194312 0.365555
vt 0.308055 0.363319
vt 0.302765 0.366110
vt 0.302765 0.361646
vt 0.191390 0.254472
vt 0.194312 0.249445
vt 0.196051 0.254472
vt 0.308055 0.251681
vt 0.302765 0.253354
vt 0.302765 0.248890
vt 0.079177 0.363323
vt 0.079177 0.365000
vt 0.077500 0.363323
vt 0.305823 0.020000
vt 0.307500 0.021677
vt 0.305823 0.021677
vt 0.079177 0.251677
vt 0.077500 0.251677
vt 0.079177 0.250000
vt 0.307500 0.134441
vt 0.305823 0.136258
vt 0.305823 0.133323
vt 0.190823 0.363323
vt 0.193758 0.363323
vt 0.192500 0.365839
vt 0.308339 0.365000
vt 0.305823 0.366677
vt 0.305823 0.363742
vt 0.190823 0.251677
vt 0.192500 0.249161
vt 0.193758 0.251677
vt 0.308339 0.250000
vt 0.305823 0.251258
vt 0.305823 0.248323
vt 0.080375 0.858808
vt 0.080375 0.865000
vt 0.077500 0.858808
vt 0.300500 0.520000
vt 0.307500 0.526192
vt 0.300500 0.526192
vt 0.080375 0.756192
vt 0.077500 0.756192
vt 0.080375 0.750000
vt 0.307500 0.631830
vt 0.300500 0.637156
vt 0.300500 0.628808
vt 0.189625 0.858808
vt 0.197750 0.858808
vt 0.194562 0.866438
vt 0.308937 0.863341
vt 0.300500 0.867875
vt 0.300500 0.860356
vt 0.189625 0.756192
vt 0.194562 0.748563
vt 0.197750 0.756192
vt 0.308937 0.751659
vt 0.300500 0.754644
vt 0.300500 0.747125
vt 0.593600 0.852615
vt 0.593600 0.865000
vt 0.577500 0.852615
vt 0.792864 0.520000
vt 0.807500 0.532385
vt 0.792864 0.532385
vt 0.593600 0.762385
vt 0.577500 0.762385
vt 0.593600 0.750000
vt 0.807500 0.632110
vt 0.792864 0.647075
vt 0.792864 0.622615
vt 0.676400 0.852615
vt 0.703477 0.852615
vt 0.691768 0.873050
vt 0.815550 0.866858
vt 0.792864 0.881100
vt 0.792864 0.855712
vt 0.676400 0.762385
vt 0.691768 0.741950
vt 0.703477 0.762385
vt 0.815550 0.748142
vt 0.792864 0.759288
vt 0.792864 0.733900
vt 0.586444 0.360400
vt 0.586444 0.365000
vt 0.577500 0.360400
vt 0.800792 0.020000
vt 0.807500 0.024600
vt 0.800792 0.024600
vt 0.586444 0.254600
vt 0.577500 0.254600
vt 0.586444 0.250000
vt 0.807500 0.134915
vt 0.800792 0.141708
vt 0.800792 0.130400
vt 0.683556 0.360400
vt 0.697531 0.360400
vt 0.691382 0.369472
vt 0.811972 0.367172
vt 0.800792 0.373944
vt 0.800792 0.361550
vt 0.683556 0.254600
vt 0.691382 0.245528
vt 0.697531 0.254600
vt 0.811972 0.247828
vt 0.800792 0.253450
vt 0.800792 0.241056
vt 0.586444 0.360872
vt 0.577500 0.360872
vt 0.803573 0.020000
vt 0.807500 0.024128
vt 0.803573 0.024128
vt 0.586444 0.254128
vt 0.577500 0.254128
vt 0.807500 0.135229
vt 0.803573 0.141708
vt 0.803573 0.130872
vt 0.683556 0.360872
vt 0.695445 0.360872
vt 0.689991 0.369472
vt 0.811972 0.367408
vt 0.803573 0.373944
vt 0.803573 0.361904
vt 0.683556 0.254128
vt 0.689991 0.245528
vt 0.695445 0.254128
vt 0.811972 0.247592
vt 0.803573 0.253096
vt 0.803573 0.241056
vt 0.586444 0.361256
vt 0.586444 0.365000
vt 0.577500 0.361256
vt 0.804343 0.020000
vt 0.807500 0.023744
vt 0.804343 0.023744
vt 0.586444 0.253744
vt 0.577500 0.253744
vt 0.807500 0.135485
vt 0.804343 0.141708
vt 0.804343 0.131256
vt 0.683556 0.361256
vt 0.694868 0.361256
vt 0.689606 0.369472
vt 0.811972 0.367600
vt 0.804343 0.373944
vt 0.804343 0.362192
vt 0.683556 0.253744
vt 0.689606 0.245528
vt 0.694868 0.253744
vt 0.811972 0.247400
vt 0.804343 0.252808
vt 0.804343 0.241056
vt 0.586444 0.360649
vt 0.577500 0.360649
vt 0.802621 0.020000
vt 0.807500 0.024351
vt 0.802621 0.024351
vt 0.586444 0.254351
vt 0.577500 0.254351
vt 0.807500 0.135081
vt 0.802621 0.141708
vt 0.802621 0.130649
vt 0.683555 0.360649
vt 0.696159 0.360649
vt 0.690467 0.369472
vt 0.811972 0.367297
vt 0.802621 0.373944
vt 0.802621 0.361736
vt 0.683555 0.254351
vt 0.690467 0.245528
vt 0.696159 0.254351
vt 0.811972 0.247703
vt 0.802621 0.253264
vt 0.802621 0.241056
vt 0.603637 0.020000
vt 0.615222 0.040067
vt 0.596249 0.032797
vt 0.648879 0.231365
vt 0.644939 0.236402
vt 0.638067 0.224499
vt 0.609783 0.056216
vt 0.621190 0.050404
vt 0.624546 0.056216
vt 0.626695 0.059939
vt 0.620017 0.061601
vt 0.753356 0.050404
vt 0.764763 0.056216
vt 0.754529 0.061601
vt 0.747851 0.059939
vt 0.750000 0.056216
vt 0.921241 0.049343
vt 0.932064 0.056216
vt 0.921689 0.061601
vt 0.915138 0.059913
vt 0.917273 0.056216
vt 0.664380 0.204516
vt 0.654844 0.200341
vt 0.661701 0.193003
vt 0.670633 0.193685
vt 0.669797 0.195133
vt 0.915038 0.204950
vt 0.905622 0.200309
vt 0.912731 0.193212
vt 0.921571 0.193634
vt 0.920604 0.195310
vt 0.887106 0.200309
vt 0.877689 0.204950
vt 0.872124 0.195310
vt 0.871156 0.193634
vt 0.879997 0.193212
vt 0.615222 0.040067
vt 0.596248 0.032797
vt 0.644939 0.236402
vt 0.621190 0.050404
vt 0.626695 0.059939
vt 0.620017 0.061601
vt 0.764763 0.056216
vt 0.754529 0.061601
vt 0.747851 0.059939
vt 0.921241 0.049343
vt 0.932064 0.056216
vt 0.921688 0.061601
vt 0.915138 0.059913
vt 0.664380 0.204516
vt 0.654844 0.200341
vt 0.912731 0.193212
vt 0.921571 0.193634
vt 0.920604 0.195310
vt 0.887106 0.200309
vt 0.872124 0.195310
vt 0.871156 0.193634
vt 0.879997 0.193212
vt 0.080300 0.342000
vt 0.080300 0.365000
vt 0.077500 0.342000
vt 0.301948 0.020000
vt 0.307500 0.043000
vt 0.301948 0.043000
vt 0.080300 0.273000
vt 0.077500 0.273000
vt 0.080300 0.250000
vt 0.307500 0.120600
vt 0.301948 0.137100
vt 0.301948 0.112000
vt 0.189700 0.342000
vt 0.196664 0.342000
vt 0.193876 0.366400
vt 0.308900 0.354900
vt 0.301948 0.367800
vt 0.301948 0.347750
vt 0.189700 0.273000
vt 0.193876 0.248600
vt 0.196664 0.273000
vt 0.308900 0.260100
vt 0.301948 0.267250
vt 0.301948 0.247200
vt 0.083355 0.342000
vt 0.083355 0.365000
vt 0.299026 0.020000
vt 0.299026 0.043000
vt 0.083355 0.273000
vt 0.083355 0.250000
vt 0.307500 0.121618
vt 0.299026 0.139391
vt 0.299026 0.112000
vt 0.186645 0.342000
vt 0.198855 0.342000
vt 0.193810 0.367927
vt 0.310427 0.356427
vt 0.299026 0.370855
vt 0.299026 0.347750
vt 0.186645 0.273000
vt 0.193810 0.247073
vt 0.198855 0.273000
vt 0.310427 0.258573
vt 0.299026 0.267250
vt 0.299026 0.244145
vt 0.087563 0.342000
vt 0.087562 0.365000
vt 0.292864 0.020000
vt 0.292864 0.043000
vt 0.087563 0.273000
vt 0.087563 0.250000
vt 0.307500 0.123021
vt 0.292864 0.142547
vt 0.292864 0.112000
vt 0.182437 0.342000
vt 0.203477 0.342000
vt 0.194787 0.370031
vt 0.312531 0.358531
vt 0.292864 0.375062
vt 0.292864 0.347750
vt 0.182437 0.273000
vt 0.194787 0.244969
vt 0.203477 0.273000
vt 0.312531 0.256469
vt 0.292864 0.267250
vt 0.292864 0.239937
vt 0.196664 0.273000
vt 0.301948 0.267250
vt 0.299026 0.139391
vt 0.310427 0.356427
vt 0.198855 0.273000
vt 0.292864 0.142547
vt 0.312531 0.358531
vt 0.203477 0.273000
vt 0.589000 0.358560
vt 0.589000 0.365000
vt 0.577500 0.358560
vt 0.799833 0.020000
vt 0.807500 0.026440
vt 0.799833 0.026440
vt 0.589000 0.256440
vt 0.577500 0.256440
vt 0.589000 0.250000
vt 0.807500 0.134540
vt 0.799833 0.143625
vt 0.799833 0.128560
vt 0.681000 0.358560
vt 0.698250 0.358560
vt 0.690583 0.370750
vt 0.813250 0.367530
vt 0.799833 0.376500
vt 0.799833 0.360170
vt 0.681000 0.256440
vt 0.690583 0.244250
vt 0.698250 0.256440
vt 0.813250 0.247470
vt 0.799833 0.254830
vt 0.799833 0.238500
vt 0.589885 0.357333
vt 0.589885 0.365000
vt 0.577500 0.357333
vt 0.802306 0.020000
vt 0.807500 0.027667
vt 0.802306 0.027667
vt 0.589885 0.257667
vt 0.577500 0.257667
vt 0.589885 0.250000
vt 0.807500 0.134017
vt 0.802306 0.144288
vt 0.802306 0.127333
vt 0.680115 0.357333
vt 0.696395 0.357333
vt 0.688904 0.371192
vt 0.813692 0.367359
vt 0.802306 0.377385
vt 0.802306 0.359250
vt 0.680115 0.257667
vt 0.688904 0.243808
vt 0.696395 0.257667
vt 0.813692 0.247641
vt 0.802306 0.255750
vt 0.802306 0.237615
vt 0.590917 0.355529
vt 0.590917 0.365000
vt 0.577500 0.355529
vt 0.798029 0.020000
vt 0.807500 0.029471
vt 0.798029 0.029471
vt 0.590917 0.259471
vt 0.577500 0.259471
vt 0.590917 0.250000
vt 0.807500 0.133159
vt 0.798029 0.145063
vt 0.798029 0.125529
vt 0.679083 0.355529
vt 0.699603 0.355529
vt 0.690527 0.371708
vt 0.814208 0.366973
vt 0.798029 0.378417
vt 0.798029 0.357897
vt 0.679083 0.259471
vt 0.690527 0.243292
vt 0.699603 0.259471
vt 0.814208 0.248027
vt 0.798029 0.257103
vt 0.798029 0.236583
vt 0.585974 0.857333
vt 0.585974 0.865000
vt 0.577500 0.857333
vt 0.804771 0.520000
vt 0.807500 0.527667
vt 0.804771 0.527667
vt 0.585974 0.757667
vt 0.577500 0.757667
vt 0.585974 0.750000
vt 0.807500 0.632713
vt 0.804771 0.641355
vt 0.804771 0.627333
vt 0.684026 0.857333
vt 0.694547 0.857333
vt 0.689628 0.869237
vt 0.811737 0.865404
vt 0.804771 0.873474
vt 0.804771 0.859250
vt 0.684026 0.757667
vt 0.689628 0.745763
vt 0.694547 0.757667
vt 0.811737 0.749597
vt 0.804771 0.755750
vt 0.804771 0.741526
vt 0.585167 0.858292
vt 0.585167 0.865000
vt 0.577500 0.858292
vt 0.767250 0.520000
vt 0.807500 0.526708
vt 0.767250 0.526708
vt 0.585167 0.756708
vt 0.577500 0.756708
vt 0.585167 0.750000
vt 0.807500 0.633083
vt 0.767250 0.640750
vt 0.767250 0.628292
vt 0.684833 0.858292
vt 0.722687 0.858292
vt 0.708792 0.868833
vt 0.811333 0.865479
vt 0.767250 0.872667
vt 0.767250 0.859969
vt 0.684833 0.756708
vt 0.708792 0.746167
vt 0.722687 0.756708
vt 0.811333 0.749521
vt 0.767250 0.755031
vt 0.767250 0.742333
vt 0.767250 0.520000
vt 0.767250 0.526708
vt 0.767250 0.640750
vt 0.767250 0.628292
vt 0.722687 0.858292
vt 0.811333 0.865479
vt 0.767250 0.872667
vt 0.767250 0.859969
vt 0.708792 0.746167
vt 0.722687 0.756708
vt 0.811333 0.749521
vt 0.767250 0.755031
vt 0.767250 0.742333
vt 0.767250 0.640750
vt 0.767250 0.628292
vt 0.708792 0.868833
vt 0.767250 0.872667
vt 0.767250 0.859969
vt 0.811333 0.749521
vt 0.767250 0.742333
vt 0.722687 0.858292
vt 0.708792 0.868833
vt 0.767250 0.859969
vt 0.708792 0.746167
vt 0.767250 0.742333
vt 0.722688 0.858292
vt 0.708792 0.746167
vt 0.100500 0.358000
vt 0.100500 0.365000
vt 0.077500 0.358000
vt 0.304984 0.020000
vt 0.307500 0.027000
vt 0.304984 0.027000
vt 0.100500 0.257000
vt 0.077500 0.257000
vt 0.100500 0.250000
vt 0.307500 0.138000
vt 0.304984 0.152250
vt 0.304984 0.128000
vt 0.169500 0.358000
vt 0.194387 0.358000
vt 0.182258 0.376500
vt 0.319000 0.373000
vt 0.304984 0.388000
vt 0.304984 0.359750
vt 0.169500 0.257000
vt 0.182258 0.238500
vt 0.194387 0.257000
vt 0.319000 0.242000
vt 0.304984 0.255250
vt 0.304984 0.227000
vt 0.081427 0.358000
vt 0.081427 0.365000
vt 0.284500 0.020000
vt 0.284500 0.027000
vt 0.081427 0.257000
vt 0.081427 0.250000
vt 0.307500 0.131642
vt 0.284500 0.137945
vt 0.284500 0.128000
vt 0.188573 0.358000
vt 0.209750 0.358000
vt 0.202037 0.366963
vt 0.309463 0.363463
vt 0.284500 0.368927
vt 0.284500 0.359750
vt 0.188573 0.257000
vt 0.202037 0.248037
vt 0.209750 0.257000
vt 0.309463 0.251537
vt 0.284500 0.255250
vt 0.284500 0.246073
vt 0.100500 0.358000
vt 0.100500 0.365000
vt 0.303372 0.020000
vt 0.303372 0.027000
vt 0.100500 0.257000
vt 0.100500 0.250000
vt 0.303372 0.152250
vt 0.303372 0.128000
vt 0.169500 0.358000
vt 0.195596 0.358000
vt 0.183064 0.376500
vt 0.319000 0.373000
vt 0.303372 0.388000
vt 0.303372 0.359750
vt 0.169500 0.257000
vt 0.183064 0.238500
vt 0.195596 0.257000
vt 0.319000 0.242000
vt 0.303372 0.255250
vt 0.303372 0.227000
vt 0.197235 0.020000
vt 0.197235 0.024472
vt 0.197235 0.136110
vt 0.197235 0.130528
vt 0.307500 0.478890
vt 0.302765 0.478890
vt 0.194177 0.020000
vt 0.194177 0.021677
vt 0.194177 0.136677
vt 0.194177 0.133323
vt 0.307500 0.478323
vt 0.305823 0.478323
vt 0.199500 0.520000
vt 0.199500 0.526192
vt 0.199500 0.637875
vt 0.199500 0.628808
vt 0.307500 0.977125
vt 0.300500 0.977125
vt 0.707136 0.520000
vt 0.707136 0.532385
vt 0.707136 0.651100
vt 0.707136 0.622615
vt 0.807500 0.963900
vt 0.792864 0.963900
vt 0.699208 0.020000
vt 0.699208 0.024600
vt 0.699208 0.143944
vt 0.699208 0.130400
vt 0.807500 0.471056
vt 0.800792 0.471056
vt 0.696427 0.020000
vt 0.696427 0.024128
vt 0.696427 0.143944
vt 0.696427 0.130872
vt 0.803573 0.471056
vt 0.695657 0.020000
vt 0.695657 0.023744
vt 0.695657 0.143944
vt 0.695657 0.131256
vt 0.807500 0.471056
vt 0.804343 0.471056
vt 0.697379 0.020000
vt 0.697379 0.024351
vt 0.697379 0.143944
vt 0.697379 0.130649
vt 0.802621 0.471056
vt 0.934758 0.025931
vt 0.945570 0.032797
vt 0.778298 0.032797
vt 0.759324 0.040067
vt 0.896364 0.211416
vt 0.899279 0.232246
vt 0.893448 0.232246
vt 0.945570 0.032797
vt 0.778298 0.032797
vt 0.759324 0.040067
vt 0.198052 0.020000
vt 0.198052 0.043000
vt 0.198052 0.137800
vt 0.198052 0.112000
vt 0.307500 0.477200
vt 0.301948 0.477200
vt 0.200974 0.020000
vt 0.200974 0.043000
vt 0.200974 0.140855
vt 0.200974 0.112000
vt 0.307500 0.474145
vt 0.299026 0.474145
vt 0.207136 0.020000
vt 0.207136 0.043000
vt 0.207136 0.145063
vt 0.207136 0.112000
vt 0.307500 0.469937
vt 0.292864 0.469938
vt 0.700167 0.020000
vt 0.700167 0.026440
vt 0.700167 0.146500
vt 0.700167 0.128560
vt 0.807500 0.468500
vt 0.799833 0.468500
vt 0.697694 0.020000
vt 0.697694 0.027667
vt 0.697694 0.147385
vt 0.697694 0.127333
vt 0.807500 0.467615
vt 0.802306 0.467615
vt 0.701971 0.020000
vt 0.701971 0.029471
vt 0.701971 0.148417
vt 0.701971 0.125529
vt 0.807500 0.466583
vt 0.798029 0.466583
vt 0.695229 0.520000
vt 0.695229 0.527667
vt 0.695229 0.643474
vt 0.695229 0.627333
vt 0.807500 0.971526
vt 0.804771 0.971526
vt 0.732750 0.520000
vt 0.732750 0.526708
vt 0.732750 0.642667
vt 0.732750 0.628292
vt 0.807500 0.972333
vt 0.767250 0.972333
vt 0.732750 0.526708
vt 0.732750 0.628292
vt 0.767250 0.972333
vt 0.732750 0.526708
vt 0.732750 0.642667
vt 0.732750 0.628292
vt 0.767250 0.972333
vt 0.732750 0.520000
vt 0.732750 0.642667
vt 0.732750 0.628292
vt 0.767250 0.972333
vt 0.195016 0.020000
vt 0.195016 0.027000
vt 0.195016 0.158000
vt 0.195016 0.128000
vt 0.307500 0.457000
vt 0.304984 0.457000
vt 0.215500 0.020000
vt 0.215500 0.027000
vt 0.215500 0.138927
vt 0.215500 0.128000
vt 0.307500 0.476073
vt 0.284500 0.476073
vt 0.196628 0.020000
vt 0.196628 0.027000
vt 0.196628 0.158000
vt 0.196628 0.128000
vt 0.307500 0.457000
vt 0.303372 0.457000
vt 0.197235 0.478890
vt 0.421390 0.254472
vt 0.421390 0.360528
vt 0.194177 0.478323
vt 0.420823 0.251677
vt 0.420823 0.363323
vt 0.199500 0.977125
vt 0.419625 0.756192
vt 0.419625 0.858808
vt 0.707136 0.963900
vt 0.906400 0.762385
vt 0.906400 0.852615
vt 0.699208 0.471056
vt 0.913556 0.254600
vt 0.913556 0.360400
vt 0.696427 0.471056
vt 0.913556 0.254128
vt 0.913556 0.360872
vt 0.695657 0.471056
vt 0.913556 0.253744
vt 0.913556 0.361256
vt 0.697379 0.471055
vt 0.913556 0.254351
vt 0.913556 0.360649
vt 0.847157 0.032797
vt 0.860663 0.056216
vt 0.681305 0.056216
vt 0.687273 0.045880
vt 0.693241 0.056216
vt 0.555672 0.201080
vt 0.569207 0.224499
vt 0.818874 0.201080
vt 0.805339 0.224499
vt 0.722974 0.201080
vt 0.736479 0.224499
vt 0.662065 0.063662
vt 0.670906 0.064084
vt 0.703640 0.064083
vt 0.712481 0.063662
vt 0.870791 0.064293
vt 0.879724 0.063610
vt 0.712845 0.193003
vt 0.703913 0.193686
vt 0.545573 0.193003
vt 0.536611 0.193634
vt 0.837935 0.193634
vt 0.828973 0.193003
vt 0.847157 0.032797
vt 0.860663 0.056216
vt 0.681305 0.056216
vt 0.555672 0.201080
vt 0.569207 0.224499
vt 0.805339 0.224499
vt 0.722974 0.201080
vt 0.736479 0.224499
vt 0.662065 0.063662
vt 0.670906 0.064083
vt 0.703640 0.064084
vt 0.712481 0.063662
vt 0.870791 0.064293
vt 0.879724 0.063610
vt 0.712845 0.193003
vt 0.703913 0.193686
vt 0.545573 0.193003
vt 0.828973 0.193003
vt 0.198052 0.477200
vt 0.419700 0.273000
vt 0.419700 0.342000
vt 0.200974 0.474145
vt 0.416645 0.273000
vt 0.416645 0.342000
vt 0.207136 0.469938
vt 0.412437 0.273000
vt 0.412437 0.342000
vt 0.700167 0.468500
vt 0.911000 0.256440
vt 0.911000 0.358560
vt 0.697694 0.467615
vt 0.910115 0.257667
vt 0.910115 0.357333
vt 0.701971 0.466583
vt 0.909083 0.259471
vt 0.909083 0.355529
vt 0.695229 0.971526
vt 0.914026 0.757667
vt 0.914026 0.857333
vt 0.732750 0.972333
vt 0.914833 0.756708
vt 0.914833 0.858292
vt 0.732750 0.972333
vt 0.732750 0.972333
vt 0.195016 0.457000
vt 0.399500 0.257000
vt 0.399500 0.358000
vt 0.215500 0.476073
vt 0.418573 0.257000
vt 0.418573 0.358000
vt 0.196628 0.457000
vt 0.399500 0.257000
vt 0.399500 0.358000
s 0
usemtl ChickenSlap
f 1/1/1 14/2/1 13/3/1
f 2/4/2 14/5/2 16/6/2
f 1/7/3 13/8/3 18/9/3
f 1/10/4 18/11/4 20/12/4
f 1/13/5 20/14/5 17/15/5
f 2/4/6 16/6/6 23/16/6
f 3/17/7 15/18/7 25/19/7
f 4/20/8 19/21/8 27/22/8
f 5/23/9 21/24/9 29/25/9
f 6/26/10 22/27/10 31/28/10
f 2/4/11 23/16/11 26/29/11
f 3/17/12 25/19/12 28/30/12
f 4/20/13 27/22/13 30/31/13
f 5/23/14 29/25/14 32/32/14
f 6/26/15 31/28/15 24/33/15
f 7/34/16 33/35/16 38/36/16
f 8/37/17 34/38/17 40/39/17
f 9/40/18 35/41/18 41/42/18
f 10/43/19 36/44/19 42/45/19
f 11/46/20 37/47/20 39/48/20
f 39/48/21 42/49/21 12/50/21
f 39/48/22 37/47/22 42/49/22
f 37/47/23 10/43/23 42/49/23
f 42/45/24 41/51/24 12/52/24
f 42/45/25 36/44/25 41/51/25
f 36/44/26 9/40/26 41/51/26
f 41/42/27 40/53/27 12/54/27
f 41/42/28 35/41/28 40/53/28
f 35/41/29 8/55/29 40/53/29
f 40/39/30 38/56/30 12/57/30
f 40/39/31 34/38/31 38/56/31
f 34/38/32 7/34/32 38/56/32
f 38/36/33 39/58/33 12/59/33
f 38/36/34 33/35/34 39/58/34
f 33/35/35 11/46/35 39/58/35
f 24/33/36 37/47/36 11/46/36
f 24/33/37 31/28/37 37/47/37
f 31/28/38 10/43/38 37/47/38
f 32/32/39 36/44/39 10/43/39
f 32/32/40 29/25/40 36/44/40
f 29/25/41 9/40/41 36/44/41
f 30/31/42 35/41/42 9/40/42
f 30/31/43 27/22/43 35/41/43
f 27/22/44 8/55/44 35/41/44
f 28/30/45 34/38/45 8/37/45
f 28/30/46 25/19/46 34/38/46
f 25/19/47 7/34/47 34/38/47
f 26/29/48 33/35/48 7/34/48
f 26/29/49 23/16/49 33/35/49
f 23/16/50 11/46/50 33/35/50
f 31/28/51 32/32/51 10/43/51
f 31/28/52 22/27/52 32/32/52
f 22/27/53 5/23/53 32/32/53
f 29/25/54 30/31/54 9/40/54
f 29/25/55 21/24/55 30/31/55
f 21/24/56 4/20/56 30/31/56
f 27/22/57 28/60/57 8/55/57
f 27/22/58 19/21/58 28/60/58
f 19/21/59 3/61/59 28/60/59
f 25/19/60 26/29/60 7/34/60
f 25/19/61 15/18/61 26/29/61
f 15/18/62 2/4/62 26/29/62
f 23/16/63 24/33/63 11/46/63
f 23/16/64 16/6/64 24/33/64
f 16/6/65 6/26/65 24/33/65
f 17/15/66 22/27/66 6/26/66
f 17/15/67 20/14/67 22/27/67
f 20/14/68 5/23/68 22/27/68
f 20/12/69 21/24/69 5/23/69
f 20/12/70 18/11/70 21/24/70
f 18/11/71 4/20/71 21/24/71
f 18/9/72 19/21/72 4/20/72
f 18/9/73 13/8/73 19/21/73
f 13/8/74 3/61/74 19/21/74
f 16/6/75 17/62/75 6/26/75
f 16/6/76 14/5/76 17/62/76
f 14/5/77 1/63/77 17/62/77
f 13/3/78 15/18/78 3/17/78
f 13/3/79 14/2/79 15/18/79
f 14/2/80 2/4/80 15/18/80
f 43/1/1 56/2/1 55/3/1
f 44/4/2 56/5/2 58/6/2
f 43/7/3 55/8/3 60/9/3
f 43/10/4 60/11/4 62/12/4
f 43/13/5 62/14/5 59/15/5
f 44/4/6 58/6/6 65/16/6
f 45/17/7 57/18/7 67/19/7
f 46/20/8 61/21/8 69/22/8
f 47/23/9 63/24/9 71/25/9
f 48/26/10 64/27/10 73/28/10
f 44/4/11 65/16/11 68/29/11
f 45/17/12 67/19/12 70/30/12
f 46/20/13 69/22/13 72/31/13
f 47/23/14 71/25/14 74/32/14
f 48/26/15 73/28/15 66/33/15
f 49/34/16 75/35/16 80/36/16
f 50/37/17 76/38/17 82/39/17
f 51/40/18 77/41/18 83/42/18
f 52/43/19 78/44/19 84/45/19
f 53/46/20 79/47/20 81/48/20
f 81/48/21 84/49/21 54/50/21
f 81/48/22 79/47/22 84/49/22
f 79/47/23 52/43/23 84/49/23
f 84/45/24 83/51/24 54/52/24
f 84/45/25 78/44/25 83/51/25
f 78/44/26 51/40/26 83/51/26
f 83/42/27 82/53/27 54/54/27
f 83/42/28 77/41/28 82/53/28
f 77/41/29 50/55/29 82/53/29
f 82/39/30 80/56/30 54/57/30
f 82/39/31 76/38/31 80/56/31
f 76/38/32 49/34/32 80/56/32
f 80/36/33 81/58/33 54/59/33
f 80/36/34 75/35/34 81/58/34
f 75/35/35 53/46/35 81/58/35
f 66/33/36 79/47/36 53/46/36
f 66/33/37 73/28/37 79/47/37
f 73/28/38 52/43/38 79/47/38
f 74/32/39 78/44/39 52/43/39
f 74/32/40 71/25/40 78/44/40
f 71/25/41 51/40/41 78/44/41
f 72/31/42 77/41/42 51/40/42
f 72/31/43 69/22/43 77/41/43
f 69/22/44 50/55/44 77/41/44
f 70/30/45 76/38/45 50/37/45
f 70/30/46 67/19/46 76/38/46
f 67/19/47 49/34/47 76/38/47
f 68/29/48 75/35/48 49/34/48
f 68/29/49 65/16/49 75/35/49
f 65/16/50 53/46/50 75/35/50
f 73/28/51 74/32/51 52/43/51
f 73/28/52 64/27/52 74/32/52
f 64/27/53 47/23/53 74/32/53
f 71/25/54 72/31/54 51/40/54
f 71/25/81 63/24/81 72/31/81
f 63/24/56 46/20/56 72/31/56
f 69/22/57 70/60/57 50/55/57
f 69/22/82 61/21/82 70/60/82
f 61/21/59 45/61/59 70/60/59
f 67/19/60 68/29/60 49/34/60
f 67/19/61 57/18/61 68/29/61
f 57/18/62 44/4/62 68/29/62
f 65/16/63 66/33/63 53/46/63
f 65/16/64 58/6/64 66/33/64
f 58/6/65 48/26/65 66/33/65
f 59/15/66 64/27/66 48/26/66
f 59/15/67 62/14/67 64/27/67
f 62/14/68 47/23/68 64/27/68
f 62/12/69 63/24/69 47/23/69
f 62/12/70 60/11/70 63/24/70
f 60/11/71 46/20/71 63/24/71
f 60/9/72 61/21/72 46/20/72
f 60/9/73 55/8/73 61/21/73
f 55/8/74 45/61/74 61/21/74
f 58/6/75 59/62/75 48/26/75
f 58/6/76 56/5/76 59/62/76
f 56/5/77 43/63/77 59/62/77
f 55/3/78 57/18/78 45/17/78
f 55/3/79 56/2/79 57/18/79
f 56/2/80 44/4/80 57/18/80
f 85/64/83 97/65/83 102/66/83
f 86/67/84 96/68/84 104/69/84
f 87/70/85 98/71/85 106/72/85
f 88/73/86 100/74/86 108/75/86
f 89/76/87 101/77/87 110/78/87
f 85/64/88 102/66/88 105/79/88
f 86/67/89 104/69/89 107/80/89
f 87/70/90 106/72/90 109/81/90
f 88/73/91 108/75/91 111/82/91
f 89/76/92 110/78/92 103/83/92
f 90/84/93 112/85/93 117/86/93
f 93/87/94 115/88/94 118/89/94
f 116/90/95 93/87/95 118/91/95
f 113/92/96 90/84/96 117/93/96
f 103/83/97 116/90/97 94/94/97
f 103/83/98 110/78/98 116/90/98
f 110/78/99 93/87/99 116/90/99
f 111/82/100 115/88/100 93/87/100
f 111/82/101 108/75/101 115/88/101
f 108/75/102 92/95/102 115/88/102
f 109/81/103 114/96/103 92/95/103
f 109/81/104 106/72/104 114/96/104
f 106/72/105 91/97/105 114/96/105
f 107/80/106 113/92/106 91/98/106
f 107/80/107 104/69/107 113/92/107
f 104/69/108 90/84/108 113/92/108
f 105/79/109 112/85/109 90/84/109
f 105/79/110 102/66/110 112/85/110
f 102/66/111 94/94/111 112/85/111
f 110/78/112 111/82/112 93/87/112
f 110/78/113 101/77/113 111/82/113
f 101/77/114 88/73/114 111/82/114
f 108/75/115 109/81/115 92/95/115
f 108/75/116 100/74/116 109/81/116
f 100/74/117 87/70/117 109/81/117
f 106/72/118 107/99/118 91/97/118
f 106/72/119 98/71/119 107/99/119
f 98/71/120 86/100/120 107/99/120
f 104/69/121 105/79/121 90/84/121
f 104/69/122 96/68/122 105/79/122
f 96/68/123 85/64/123 105/79/123
f 102/66/124 103/83/124 94/94/124
f 102/66/125 97/65/125 103/83/125
f 97/65/126 89/76/126 103/83/126
f 99/101/127 88/73/127 101/77/127
f 99/102/128 100/74/128 88/73/128
f 95/103/129 86/100/129 98/71/129
f 95/104/130 96/68/130 86/67/130
f 119/64/83 131/65/83 136/66/83
f 120/67/84 130/68/84 138/69/84
f 121/70/85 132/71/85 140/72/85
f 122/73/86 134/74/86 142/75/86
f 123/76/87 135/77/87 144/78/87
f 119/64/88 136/66/88 139/79/88
f 120/67/89 138/69/89 141/80/89
f 121/70/90 140/72/90 143/81/90
f 122/73/91 142/75/91 145/82/91
f 123/76/92 144/78/92 137/83/92
f 124/84/93 146/85/93 151/86/93
f 127/87/94 149/88/94 152/89/94
f 150/90/95 127/87/95 152/91/95
f 147/92/96 124/84/96 151/93/96
f 137/83/97 150/90/97 128/94/97
f 137/83/98 144/78/98 150/90/98
f 144/78/99 127/87/99 150/90/99
f 145/82/100 149/88/100 127/87/100
f 145/82/101 142/75/101 149/88/101
f 142/75/102 126/95/102 149/88/102
f 143/81/103 148/96/103 126/95/103
f 143/81/104 140/72/104 148/96/104
f 140/72/105 125/97/105 148/96/105
f 141/80/106 147/92/106 125/98/106
f 141/80/107 138/69/107 147/92/107
f 138/69/108 124/84/108 147/92/108
f 139/79/109 146/85/109 124/84/109
f 139/79/110 136/66/110 146/85/110
f 136/66/111 128/94/111 146/85/111
f 144/78/112 145/82/112 127/87/112
f 144/78/113 135/77/113 145/82/113
f 135/77/114 122/73/114 145/82/114
f 142/75/115 143/81/115 126/95/115
f 142/75/116 134/74/116 143/81/116
f 134/74/117 121/70/117 143/81/117
f 140/72/118 141/99/118 125/97/118
f 140/72/119 132/71/119 141/99/119
f 132/71/120 120/100/120 141/99/120
f 138/69/121 139/79/121 124/84/121
f 138/69/122 130/68/122 139/79/122
f 130/68/123 119/64/123 139/79/123
f 136/66/124 137/83/124 128/94/124
f 136/66/125 131/65/125 137/83/125
f 131/65/126 123/76/126 137/83/126
f 133/101/127 122/73/127 135/77/127
f 133/102/128 134/74/128 122/73/128
f 129/103/129 120/100/129 132/71/129
f 129/104/130 130/68/130 120/67/130
f 153/105/131 154/106/131 155/107/131
f 156/108/132 157/109/132 158/110/132
f 159/111/133 160/112/133 161/113/133
f 162/114/134 163/115/134 164/116/134
f 165/117/135 166/118/135 167/119/135
f 168/120/136 169/121/136 170/122/136
f 171/123/137 172/124/137 173/125/137
f 174/126/138 175/127/138 176/128/138
f 177/129/139 178/130/139 179/131/139
f 180/132/140 181/133/140 182/134/140
f 183/135/141 184/136/141 185/137/141
f 186/138/142 187/139/142 188/140/142
f 189/141/143 190/142/143 191/143/143
f 192/144/136 193/145/136 194/146/136
f 195/147/144 196/148/144 197/149/144
f 198/150/138 199/151/138 200/152/138
f 201/153/139 202/154/139 203/155/139
f 204/156/145 205/157/145 206/158/145
f 207/159/141 208/160/141 209/161/141
f 210/162/146 211/163/146 212/164/146
f 213/165/147 214/166/147 215/167/147
f 216/168/148 217/169/148 218/170/148
f 219/171/149 220/172/149 221/173/149
f 222/174/150 223/175/150 224/176/150
f 225/177/131 226/178/131 227/179/131
f 228/180/132 229/181/132 230/182/132
f 231/183/133 232/184/133 233/185/133
f 234/186/134 235/187/134 236/188/134
f 237/189/151 238/190/151 239/191/151
f 240/192/136 241/193/136 242/194/136
f 243/195/152 244/196/152 245/197/152
f 246/198/138 247/199/138 248/200/138
f 249/201/139 250/202/139 251/203/139
f 252/204/153 253/205/153 254/206/153
f 255/207/141 256/208/141 257/209/141
f 258/210/154 259/211/154 260/212/154
f 261/213/147 262/214/147 263/215/147
f 264/216/155 265/217/155 266/218/155
f 267/219/149 268/220/149 269/221/149
f 270/222/156 271/223/156 272/224/156
f 273/225/157 274/202/157 275/226/157
f 276/227/153 277/228/153 278/229/153
f 279/230/158 280/231/158 281/209/158
f 282/232/154 283/233/154 284/234/154
f 285/235/143 286/236/143 287/237/143
f 288/238/155 289/239/155 290/240/155
f 291/241/144 292/242/144 293/243/144
f 294/244/156 295/245/156 296/246/156
f 297/247/157 298/248/157 299/249/157
f 300/250/159 301/251/159 302/252/159
f 303/253/158 304/254/158 305/209/158
f 306/255/160 307/256/160 308/257/160
f 309/258/143 310/259/143 311/260/143
f 312/261/161 313/262/161 314/263/161
f 315/264/144 316/265/144 317/266/144
f 318/267/162 319/268/162 320/269/162
f 321/270/131 322/248/131 323/271/131
f 324/272/132 325/273/132 326/274/132
f 327/275/133 328/276/133 329/209/133
f 330/277/134 331/278/134 332/279/134
f 333/280/151 334/281/151 335/282/151
f 336/283/136 337/284/136 338/285/136
f 339/286/152 340/287/152 341/288/152
f 342/289/138 343/290/138 344/291/138
f 345/292/163 346/293/163 347/294/163
f 348/295/164 349/296/164 350/297/164
f 351/298/165 352/299/165 353/300/165 354/301/165 355/302/165
f 356/303/166 357/304/166 358/305/166 359/306/166 360/307/166
f 361/308/167 362/309/167 363/310/167 364/311/167 365/312/167
f 366/313/168 367/314/168 368/315/168 369/316/168 370/317/168
f 371/318/169 372/319/169 373/320/169 374/321/169 375/322/169
f 376/323/170 377/324/170 378/325/170 379/326/170 380/327/170
f 381/292/163 382/328/163 383/329/163
f 384/295/164 385/330/164 386/297/164
f 387/298/165 388/331/165 389/300/165 390/332/165 391/333/165
f 392/303/166 393/334/166 394/335/166 395/336/166 396/307/166
f 397/337/167 398/338/167 399/339/167 400/340/167 401/312/167
f 402/341/168 403/342/168 404/315/168 405/316/168 406/317/168
f 407/318/169 408/319/169 409/343/169 410/344/169 411/345/169
f 412/346/170 413/324/170 414/347/170 415/348/170 416/349/170
f 417/350/157 418/351/157 419/352/157
f 420/353/132 421/354/132 422/355/132
f 423/356/158 424/357/158 425/358/158
f 426/359/134 427/360/134 428/361/134
f 429/362/151 430/363/151 431/364/151
f 432/365/136 433/366/136 434/367/136
f 435/368/152 436/369/152 437/370/152
f 438/371/138 439/372/138 440/373/138
f 441/374/171 442/375/171 443/352/171
f 444/376/132 445/354/132 446/377/132
f 447/378/172 448/357/172 449/379/172
f 450/380/134 451/381/134 452/382/134
f 453/383/173 454/384/173 455/385/173
f 456/386/155 457/387/155 458/388/155
f 459/389/174 460/390/174 461/391/174
f 462/392/156 463/393/156 464/394/156
f 465/395/175 466/396/175 467/352/175
f 468/397/176 469/354/176 470/398/176
f 471/399/141 472/357/141 473/400/141
f 474/401/146 475/402/146 476/403/146
f 477/404/173 478/405/173 479/406/173
f 480/407/161 481/408/161 482/409/161
f 483/410/177 484/411/177 485/412/177
f 486/413/178 487/414/178 488/415/178
f 489/350/157 490/351/157 491/352/157
f 492/353/132 493/354/132 494/355/132
f 495/356/158 496/357/158 497/358/158
f 498/359/134 499/360/134 500/361/134
f 501/362/151 502/363/151 503/364/151
f 504/365/136 505/366/136 506/367/136
f 507/368/152 508/369/152 509/416/152
f 510/371/138 511/417/138 512/373/138
f 513/374/171 514/375/171 515/352/171
f 516/376/132 517/354/132 518/377/132
f 519/378/172 520/357/172 521/379/172
f 522/380/134 523/418/134 524/382/134
f 525/383/173 526/384/173 527/385/173
f 528/419/155 529/387/155 530/388/155
f 531/389/174 532/390/174 533/420/174
f 534/392/156 535/393/156 536/394/156
f 537/395/139 538/396/139 539/352/139
f 540/397/145 541/354/145 542/398/145
f 543/399/179 544/357/179 545/400/179
f 546/401/180 547/421/180 548/403/180
f 549/404/181 550/405/181 551/406/181
f 552/422/182 553/408/182 554/409/182
f 555/410/174 556/411/174 557/423/174
f 558/413/162 559/414/162 560/415/162
f 561/424/139 562/425/139 563/426/139
f 564/427/159 565/428/159 566/429/159
f 567/430/141 568/431/141 569/432/141
f 570/433/160 571/434/160 572/435/160
f 573/436/181 574/437/181 575/438/181
f 576/439/148 577/440/148 578/441/148
f 579/442/177 580/443/177 581/444/177
f 582/445/150 583/446/150 584/447/150
f 585/448/139 586/449/139 587/450/139
f 588/451/159 589/452/159 590/453/159
f 591/454/141 592/455/141 593/456/141
f 594/457/160 595/458/160 596/459/160
f 597/460/181 598/461/181 599/462/181
f 600/463/148 601/464/148 602/465/148
f 603/466/177 604/467/177 605/468/177
f 606/469/150 607/470/150 608/471/150
f 609/472/139 610/473/139 611/474/139
f 612/475/176 613/476/176 614/477/176
f 615/478/141 616/479/141 617/480/141
f 618/481/180 619/482/180 620/483/180
f 621/484/181 622/485/181 623/486/181
f 624/487/161 625/488/161 626/489/161
f 627/490/177 628/491/177 629/492/177
f 630/493/162 631/494/162 632/495/162
f 633/496/131 634/497/131 635/498/131
f 636/499/145 637/500/145 638/501/145
f 639/502/133 640/503/133 641/504/133
f 642/505/146 643/506/146 644/507/146
f 645/508/151 646/509/151 647/510/151
f 648/511/182 649/512/182 650/513/182
f 651/514/152 652/515/152 653/516/152
f 654/517/178 655/518/178 656/519/178
f 657/520/175 658/521/175 659/522/175
f 660/523/140 661/524/140 662/525/140
f 663/526/179 664/527/179 665/528/179
f 666/529/142 667/530/142 668/531/142
f 669/532/173 670/533/173 671/534/173
f 672/535/183 673/536/183 674/537/183
f 675/538/174 676/539/174 677/540/174
f 678/541/184 679/542/184 680/543/184
f 681/520/175 682/521/175 683/522/175
f 684/544/176 685/524/176 686/545/176
f 687/526/185 688/527/185 689/528/185
f 690/529/142 691/546/142 692/547/142
f 693/532/143 694/548/143 695/534/143
f 696/549/155 697/550/155 698/551/155
f 699/538/152 700/552/152 701/553/152
f 702/554/138 703/555/138 704/556/138
f 705/520/175 706/521/175 707/522/175
f 708/523/176 709/524/176 710/525/176
f 711/526/185 712/527/185 713/528/185
f 714/529/180 715/557/180 716/558/180
f 717/532/173 718/533/173 719/559/173
f 720/535/161 721/560/161 722/561/161
f 723/538/186 724/539/186 725/540/186
f 726/562/162 727/542/162 728/563/162
f 729/520/175 730/521/175 731/522/175
f 732/523/176 733/524/176 734/525/176
f 735/526/179 736/527/179 737/528/179
f 738/529/180 739/530/180 740/558/180
f 741/532/173 742/564/173 743/565/173
f 744/549/161 745/536/161 746/566/161
f 747/538/174 748/567/174 749/540/174
f 750/554/162 751/542/162 752/568/162
f 753/520/175 754/521/175 755/522/175
f 756/523/176 757/524/176 758/525/176
f 759/526/179 760/527/179 761/528/179
f 762/529/180 763/530/180 764/558/180
f 765/532/173 766/569/173 767/565/173
f 768/535/161 769/536/161 770/561/161
f 771/538/174 772/570/174 773/540/174
f 774/541/162 775/542/162 776/568/162
f 777/571/131 778/572/131 779/573/131
f 780/574/159 781/575/159 782/576/159
f 783/577/133 784/578/133 785/579/133
f 786/580/160 787/581/160 788/582/160
f 789/583/151 790/584/151 791/585/151
f 792/586/182 793/587/182 794/588/182
f 795/589/152 796/590/152 797/591/152
f 798/592/150 799/593/150 800/594/150
f 801/595/171 802/596/171 803/573/171
f 804/597/132 805/575/132 806/598/132
f 807/599/172 808/578/172 809/600/172
f 810/601/134 811/602/134 812/603/134
f 813/604/147 814/605/147 815/606/147
f 816/607/136 817/608/136 818/609/136
f 819/610/149 820/611/149 821/612/149
f 822/613/138 823/614/138 824/615/138
f 825/616/131 826/617/131 827/573/131
f 828/618/159 829/575/159 830/619/159
f 831/620/133 832/578/133 833/621/133
f 834/580/160 835/622/160 836/623/160
f 837/624/151 838/625/151 839/626/151
f 840/627/148 841/628/148 842/629/148
f 843/630/152 844/631/152 845/632/152
f 846/633/150 847/634/150 848/635/150
f 159/111/187 153/105/187 155/107/187 160/112/187
f 154/636/188 156/108/188 158/110/188 155/637/188
f 157/109/189 162/114/189 164/116/189 158/110/189
f 163/115/190 161/638/190 160/639/190 164/116/190
f 171/123/191 159/111/191 161/113/191 172/124/191
f 162/114/192 174/126/192 176/128/192 163/115/192
f 175/127/193 173/125/193 172/124/193 176/128/193
f 165/117/194 171/123/194 173/125/194 166/118/194
f 174/126/195 168/120/195 170/122/195 175/127/195
f 169/121/196 167/119/196 166/118/196 170/122/196
f 153/105/197 165/117/197 167/119/197 154/106/197
f 168/120/198 157/640/198 156/641/198 169/121/198
f 183/135/187 177/129/187 179/131/187 184/136/187
f 178/642/188 180/132/188 182/134/188 179/643/188
f 181/133/189 186/138/189 188/140/189 182/134/189
f 187/139/190 185/644/190 184/645/190 188/140/190
f 195/147/191 183/135/191 185/137/191 196/148/191
f 186/138/192 198/150/192 200/152/192 187/139/192
f 199/151/193 197/149/193 196/148/193 200/152/193
f 189/141/194 195/147/194 197/149/194 190/142/194
f 198/150/195 192/144/195 194/146/195 199/151/195
f 193/145/196 191/143/196 190/142/196 194/146/196
f 177/129/197 189/141/197 191/143/197 178/130/197
f 192/144/198 181/646/198 180/647/198 193/145/198
f 207/159/187 201/153/187 203/155/187 208/160/187
f 202/648/188 204/156/188 206/158/188 203/649/188
f 205/157/189 210/162/189 212/164/189 206/158/189
f 211/163/190 209/650/190 208/651/190 212/164/190
f 219/171/191 207/159/191 209/161/191 220/172/191
f 210/162/192 222/174/192 224/176/192 211/163/192
f 223/175/193 221/173/193 220/172/193 224/176/193
f 213/165/194 219/171/194 221/173/194 214/166/194
f 222/174/195 216/168/195 218/170/195 223/175/195
f 217/169/196 215/167/196 214/166/196 218/170/196
f 201/153/197 213/165/197 215/167/197 202/154/197
f 216/168/198 205/652/198 204/653/198 217/169/198
f 231/183/187 225/177/187 227/179/187 232/184/187
f 226/654/188 228/180/188 230/182/188 227/655/188
f 229/181/189 234/186/189 236/188/189 230/182/189
f 235/187/190 233/656/190 232/657/190 236/188/190
f 243/195/191 231/183/191 233/185/191 244/196/191
f 234/186/192 246/198/192 248/200/192 235/187/192
f 247/199/193 245/197/193 244/196/193 248/200/193
f 237/189/194 243/195/194 245/197/194 238/190/194
f 246/198/195 240/192/195 242/194/195 247/199/195
f 241/193/196 239/191/196 238/190/196 242/194/196
f 225/177/197 237/189/197 239/191/197 226/178/197
f 240/192/198 229/658/198 228/659/198 241/193/198
f 255/207/187 249/201/187 251/203/187 256/208/187
f 250/660/188 252/204/188 254/206/188 251/661/188
f 253/205/189 258/210/189 260/212/189 254/206/189
f 259/211/190 257/662/190 256/663/190 260/212/190
f 267/219/191 255/207/191 257/209/191 268/220/191
f 258/210/192 270/222/192 272/224/192 259/211/192
f 271/223/193 269/221/193 268/220/193 272/224/193
f 261/213/194 267/219/194 269/221/194 262/214/194
f 270/222/195 264/216/195 266/218/195 271/223/195
f 265/217/196 263/215/196 262/214/196 266/218/196
f 249/201/197 261/213/197 263/215/197 250/202/197
f 264/216/198 253/664/198 252/665/198 265/217/198
f 279/230/187 273/225/187 275/226/187 280/231/187
f 274/666/188 276/227/188 278/229/188 275/667/188
f 277/228/189 282/232/189 284/234/189 278/229/189
f 283/233/190 281/668/190 280/669/190 284/234/190
f 291/241/191 279/230/191 281/209/191 292/242/191
f 282/232/192 294/244/192 296/246/192 283/233/192
f 295/245/193 293/243/193 292/242/193 296/246/193
f 285/235/194 291/241/194 293/243/194 286/236/194
f 294/244/195 288/238/195 290/240/195 295/245/195
f 289/239/196 287/237/196 286/236/196 290/240/196
f 273/225/197 285/235/197 287/237/197 274/202/197
f 288/238/198 277/664/198 276/670/198 289/239/198
f 303/253/187 297/247/187 299/249/187 304/254/187
f 298/671/188 300/250/188 302/252/188 299/672/188
f 301/251/189 306/255/189 308/257/189 302/252/189
f 307/256/190 305/673/190 304/674/190 308/257/190
f 315/264/191 303/253/191 305/209/191 316/265/191
f 306/255/192 318/267/192 320/269/192 307/256/192
f 319/268/193 317/266/193 316/265/193 320/269/193
f 309/258/194 315/264/194 317/266/194 310/259/194
f 318/267/195 312/261/195 314/263/195 319/268/195
f 313/262/196 311/260/196 310/259/196 314/263/196
f 297/247/197 309/258/197 311/260/197 298/248/197
f 312/261/198 301/675/198 300/676/198 313/262/198
f 327/275/187 321/270/187 323/271/187 328/276/187
f 322/677/188 324/272/188 326/274/188 323/678/188
f 325/273/189 330/277/189 332/279/189 326/274/189
f 331/278/190 329/679/190 328/680/190 332/279/190
f 339/286/191 327/275/191 329/209/191 340/287/191
f 330/277/192 342/289/192 344/291/192 331/278/192
f 343/290/193 341/288/193 340/287/193 344/291/193
f 333/280/194 339/286/194 341/288/194 334/281/194
f 342/289/195 336/283/195 338/285/195 343/290/195
f 337/284/196 335/282/196 334/281/196 338/285/196
f 321/270/197 333/280/197 335/282/197 322/248/197
f 336/283/198 325/675/198 324/681/198 337/284/198
f 361/308/199 345/682/199 347/683/199 362/309/199
f 366/313/200 348/295/200 350/297/200 367/314/200
f 346/293/201 352/299/201 351/298/201 347/294/201
f 345/684/202 357/304/202 356/303/202 346/685/202
f 349/686/203 372/319/203 371/318/203 350/687/203
f 348/688/204 377/324/204 376/323/204 349/686/204
f 397/337/199 381/682/199 383/689/199 398/338/199
f 402/341/200 384/295/200 386/297/200 403/342/200
f 382/328/201 388/331/201 387/298/201 383/329/201
f 381/690/202 393/334/202 392/303/202 382/691/202
f 385/686/203 408/319/203 407/318/203 386/687/203
f 384/688/204 413/324/204 412/346/204 385/686/204
f 423/356/187 417/350/187 419/352/187 424/357/187
f 418/692/188 420/353/188 422/355/188 419/693/188
f 421/354/189 426/359/189 428/361/189 422/355/189
f 427/360/190 425/694/190 424/695/190 428/361/190
f 435/368/191 423/356/191 425/358/191 436/369/191
f 426/359/192 438/371/192 440/373/192 427/360/192
f 439/372/193 437/370/193 436/369/193 440/373/193
f 429/362/194 435/368/194 437/370/194 430/363/194
f 438/371/195 432/365/195 434/367/195 439/372/195
f 433/366/196 431/364/196 430/363/196 434/367/196
f 417/350/197 429/362/197 431/364/197 418/351/197
f 432/365/198 421/696/198 420/697/198 433/366/198
f 447/378/187 441/374/187 443/352/187 448/357/187
f 442/698/188 444/376/188 446/377/188 443/699/188
f 445/354/189 450/380/189 452/382/189 446/377/189
f 451/381/190 449/700/190 448/701/190 452/382/190
f 459/389/191 447/378/191 449/379/191 460/390/191
f 450/380/192 462/392/192 464/394/192 451/381/192
f 463/393/193 461/391/193 460/390/193 464/394/193
f 453/383/194 459/389/194 461/391/194 454/384/194
f 462/392/195 456/386/195 458/388/195 463/393/195
f 457/387/196 455/385/196 454/384/196 458/388/196
f 441/374/197 453/383/197 455/385/197 442/375/197
f 456/386/198 445/702/198 444/703/198 457/387/198
f 471/399/187 465/395/187 467/352/187 472/357/187
f 466/704/188 468/397/188 470/398/188 467/705/188
f 469/354/189 474/401/189 476/403/189 470/398/189
f 475/402/190 473/706/190 472/707/190 476/403/190
f 483/410/191 471/399/191 473/400/191 484/411/191
f 474/401/192 486/413/192 488/415/192 475/402/192
f 487/414/193 485/412/193 484/411/193 488/415/193
f 477/404/194 483/410/194 485/412/194 478/405/194
f 486/413/195 480/407/195 482/409/195 487/414/195
f 481/408/196 479/406/196 478/405/196 482/409/196
f 465/395/197 477/404/197 479/406/197 466/396/197
f 480/407/198 469/708/198 468/709/198 481/408/198
f 495/356/187 489/350/187 491/352/187 496/357/187
f 490/692/188 492/353/188 494/355/188 491/693/188
f 493/354/189 498/359/189 500/361/189 494/355/189
f 499/360/190 497/694/190 496/695/190 500/361/190
f 507/368/191 495/356/191 497/358/191 508/369/191
f 498/359/192 510/371/192 512/373/192 499/360/192
f 511/417/193 509/416/193 508/369/193 512/373/193
f 501/362/194 507/368/194 509/416/194 502/363/194
f 510/371/195 504/365/195 506/367/195 511/417/195
f 505/366/196 503/364/196 502/363/196 506/367/196
f 489/350/197 501/362/197 503/364/197 490/351/197
f 504/365/198 493/696/198 492/697/198 505/366/198
f 519/378/187 513/374/187 515/352/187 520/357/187
f 514/698/188 516/376/188 518/377/188 515/699/188
f 517/354/189 522/380/189 524/382/189 518/377/189
f 523/418/190 521/700/190 520/701/190 524/382/190
f 531/389/191 519/378/191 521/379/191 532/390/191
f 522/380/192 534/392/192 536/394/192 523/418/192
f 535/393/193 533/420/193 532/390/193 536/394/193
f 525/383/194 531/389/194 533/420/194 526/384/194
f 534/392/195 528/419/195 530/388/195 535/393/195
f 529/387/196 527/385/196 526/384/196 530/388/196
f 513/374/197 525/383/197 527/385/197 514/375/197
f 528/419/198 517/702/198 516/703/198 529/387/198
f 543/399/187 537/395/187 539/352/187 544/357/187
f 538/704/188 540/397/188 542/398/188 539/705/188
f 541/354/189 546/401/189 548/403/189 542/398/189
f 547/421/190 545/706/190 544/707/190 548/403/190
f 555/410/191 543/399/191 545/400/191 556/411/191
f 546/401/192 558/413/192 560/415/192 547/421/192
f 559/414/193 557/423/193 556/411/193 560/415/193
f 549/404/194 555/410/194 557/423/194 550/405/194
f 558/413/195 552/422/195 554/409/195 559/414/195
f 553/408/196 551/406/196 550/405/196 554/409/196
f 537/395/197 549/404/197 551/406/197 538/396/197
f 552/422/198 541/708/198 540/709/198 553/408/198
f 567/430/187 561/424/187 563/426/187 568/431/187
f 562/710/188 564/427/188 566/429/188 563/711/188
f 565/428/189 570/433/189 572/435/189 566/429/189
f 571/434/190 569/712/190 568/713/190 572/435/190
f 579/442/191 567/430/191 569/432/191 580/443/191
f 570/433/192 582/445/192 584/447/192 571/434/192
f 583/446/193 581/444/193 580/443/193 584/447/193
f 573/436/194 579/442/194 581/444/194 574/437/194
f 582/445/195 576/439/195 578/441/195 583/446/195
f 577/440/196 575/438/196 574/437/196 578/441/196
f 561/424/197 573/436/197 575/438/197 562/425/197
f 576/439/198 565/714/198 564/715/198 577/440/198
f 591/454/187 585/448/187 587/450/187 592/455/187
f 586/716/188 588/451/188 590/453/188 587/717/188
f 589/452/189 594/457/189 596/459/189 590/453/189
f 595/458/190 593/718/190 592/719/190 596/459/190
f 603/466/191 591/454/191 593/456/191 604/467/191
f 594/457/192 606/469/192 608/471/192 595/458/192
f 607/470/193 605/468/193 604/467/193 608/471/193
f 597/460/194 603/466/194 605/468/194 598/461/194
f 606/469/195 600/463/195 602/465/195 607/470/195
f 601/464/196 599/462/196 598/461/196 602/465/196
f 585/448/197 597/460/197 599/462/197 586/449/197
f 600/463/198 589/720/198 588/721/198 601/464/198
f 615/478/187 609/472/187 611/474/187 616/479/187
f 610/722/188 612/475/188 614/477/188 611/723/188
f 613/476/189 618/481/189 620/483/189 614/477/189
f 619/482/190 617/724/190 616/725/190 620/483/190
f 627/490/191 615/478/191 617/480/191 628/491/191
f 618/481/192 630/493/192 632/495/192 619/482/192
f 631/494/193 629/492/193 628/491/193 632/495/193
f 621/484/194 627/490/194 629/492/194 622/485/194
f 630/493/195 624/487/195 626/489/195 631/494/195
f 625/488/196 623/486/196 622/485/196 626/489/196
f 609/472/197 621/484/197 623/486/197 610/473/197
f 624/487/198 613/726/198 612/727/198 625/488/198
f 639/502/187 633/496/187 635/498/187 640/503/187
f 634/728/188 636/499/188 638/501/188 635/729/188
f 637/500/189 642/505/189 644/507/189 638/501/189
f 643/506/190 641/730/190 640/731/190 644/507/190
f 651/514/191 639/502/191 641/504/191 652/515/191
f 642/505/192 654/517/192 656/519/192 643/506/192
f 655/518/193 653/516/193 652/515/193 656/519/193
f 645/508/194 651/514/194 653/516/194 646/509/194
f 654/517/195 648/511/195 650/513/195 655/518/195
f 649/512/196 647/510/196 646/509/196 650/513/196
f 633/496/197 645/508/197 647/510/197 634/497/197
f 648/511/198 637/732/198 636/733/198 649/512/198
f 663/526/187 657/520/187 659/522/187 664/527/187
f 658/734/188 660/523/188 662/525/188 659/735/188
f 661/524/189 666/529/189 668/531/189 662/525/189
f 667/530/190 665/736/190 664/737/190 668/531/190
f 675/538/191 663/526/191 665/528/191 676/539/191
f 666/529/192 678/541/192 680/543/192 667/530/192
f 679/542/193 677/540/193 676/539/193 680/543/193
f 669/532/194 675/538/194 677/540/194 670/533/194
f 678/541/195 672/535/195 674/537/195 679/542/195
f 673/536/196 671/534/196 670/533/196 674/537/196
f 657/520/197 669/532/197 671/534/197 658/521/197
f 672/535/198 661/738/198 660/739/198 673/536/198
f 687/526/187 681/520/187 683/522/187 688/527/187
f 682/734/188 684/544/188 686/545/188 683/740/188
f 685/524/189 690/529/189 692/547/189 686/545/189
f 691/546/190 689/736/190 688/741/190 692/547/190
f 699/538/191 687/526/191 689/528/191 700/552/191
f 690/529/192 702/554/192 704/556/192 691/546/192
f 703/555/193 701/553/193 700/552/193 704/556/193
f 693/532/194 699/538/194 701/553/194 694/548/194
f 702/554/195 696/549/195 698/551/195 703/555/195
f 697/550/196 695/534/196 694/548/196 698/551/196
f 681/520/197 693/532/197 695/534/197 682/521/197
f 696/549/198 685/738/198 684/742/198 697/550/198
f 711/526/187 705/520/187 707/522/187 712/527/187
f 706/734/188 708/523/188 710/525/188 707/743/188
f 709/524/189 714/529/189 716/558/189 710/525/189
f 715/557/190 713/744/190 712/745/190 716/558/190
f 723/538/191 711/526/191 713/528/191 724/539/191
f 714/529/192 726/562/192 728/563/192 715/557/192
f 727/542/193 725/540/193 724/539/193 728/563/193
f 717/532/194 723/538/194 725/540/194 718/533/194
f 726/562/195 720/535/195 722/561/195 727/542/195
f 721/560/196 719/559/196 718/533/196 722/561/196
f 705/520/197 717/532/197 719/559/197 706/521/197
f 720/535/198 709/738/198 708/746/198 721/560/198
f 735/526/187 729/520/187 731/522/187 736/527/187
f 730/747/188 732/523/188 734/525/188 731/735/188
f 733/524/189 738/529/189 740/558/189 734/525/189
f 739/530/190 737/748/190 736/749/190 740/558/190
f 747/538/191 735/526/191 737/528/191 748/567/191
f 738/529/192 750/554/192 752/568/192 739/530/192
f 751/542/193 749/540/193 748/567/193 752/568/193
f 741/532/194 747/538/194 749/540/194 742/564/194
f 750/554/195 744/549/195 746/566/195 751/542/195
f 745/536/196 743/565/196 742/564/196 746/566/196
f 729/520/197 741/532/197 743/565/197 730/521/197
f 744/549/198 733/738/198 732/750/198 745/536/198
f 759/526/187 753/520/187 755/522/187 760/527/187
f 754/747/188 756/523/188 758/525/188 755/735/188
f 757/524/189 762/529/189 764/558/189 758/525/189
f 763/530/190 761/748/190 760/749/190 764/558/190
f 771/538/191 759/526/191 761/528/191 772/570/191
f 762/529/192 774/541/192 776/568/192 763/530/192
f 775/542/193 773/540/193 772/570/193 776/568/193
f 765/532/194 771/538/194 773/540/194 766/569/194
f 774/541/195 768/535/195 770/561/195 775/542/195
f 769/536/196 767/565/196 766/569/196 770/561/196
f 753/520/197 765/532/197 767/565/197 754/521/197
f 768/535/198 757/738/198 756/750/198 769/536/198
f 783/577/187 777/571/187 779/573/187 784/578/187
f 778/751/188 780/574/188 782/576/188 779/752/188
f 781/575/189 786/580/189 788/582/189 782/576/189
f 787/581/190 785/753/190 784/754/190 788/582/190
f 795/589/191 783/577/191 785/579/191 796/590/191
f 786/580/192 798/592/192 800/594/192 787/581/192
f 799/593/193 797/591/193 796/590/193 800/594/193
f 789/583/194 795/589/194 797/591/194 790/584/194
f 798/592/195 792/586/195 794/588/195 799/593/195
f 793/587/196 791/585/196 790/584/196 794/588/196
f 777/571/197 789/583/197 791/585/197 778/572/197
f 792/586/198 781/755/198 780/756/198 793/587/198
f 807/599/187 801/595/187 803/573/187 808/578/187
f 802/757/188 804/597/188 806/598/188 803/758/188
f 805/575/189 810/601/189 812/603/189 806/598/189
f 811/602/190 809/759/190 808/760/190 812/603/190
f 819/610/191 807/599/191 809/600/191 820/611/191
f 810/601/192 822/613/192 824/615/192 811/602/192
f 823/614/193 821/612/193 820/611/193 824/615/193
f 813/604/194 819/610/194 821/612/194 814/605/194
f 822/613/195 816/607/195 818/609/195 823/614/195
f 817/608/196 815/606/196 814/605/196 818/609/196
f 801/595/197 813/604/197 815/606/197 802/596/197
f 816/607/198 805/761/198 804/762/198 817/608/198
f 831/620/187 825/616/187 827/573/187 832/578/187
f 826/763/188 828/618/188 830/619/188 827/764/188
f 829/575/189 834/580/189 836/623/189 830/619/189
f 835/622/190 833/765/190 832/766/190 836/623/190
f 843/630/191 831/620/191 833/621/191 844/631/191
f 834/580/192 846/633/192 848/635/192 835/622/192
f 847/634/193 845/632/193 844/631/193 848/635/193
f 837/624/194 843/630/194 845/632/194 838/625/194
f 846/633/195 840/627/195 842/629/195 847/634/195
f 841/628/196 839/626/196 838/625/196 842/629/196
f 825/616/197 837/624/197 839/626/197 826/617/197
f 840/627/198 829/767/198 828/768/198 841/628/198
f 159/111/205 171/123/205 165/117/205 153/105/205
f 155/637/206 158/110/206 164/116/206 160/639/206
f 167/119/207 169/121/207 156/641/207 154/769/207
f 174/126/208 162/770/208 157/771/208 168/120/208
f 161/638/209 163/115/209 176/128/209 172/124/209
f 173/125/210 175/127/210 170/122/210 166/118/210
f 183/135/205 195/147/205 189/141/205 177/129/205
f 179/643/206 182/134/206 188/140/206 184/645/206
f 191/143/207 193/145/207 180/647/207 178/772/207
f 198/150/208 186/773/208 181/774/208 192/144/208
f 185/644/209 187/139/209 200/152/209 196/148/209
f 197/149/210 199/151/210 194/146/210 190/142/210
f 207/159/205 219/171/205 213/165/205 201/153/205
f 203/649/206 206/158/206 212/164/206 208/651/206
f 215/167/207 217/169/207 204/653/207 202/775/207
f 222/174/208 210/776/208 205/777/208 216/168/208
f 209/650/209 211/163/209 224/176/209 220/172/209
f 221/173/210 223/175/210 218/170/210 214/166/210
f 231/183/205 243/195/205 237/189/205 225/177/205
f 227/655/206 230/182/206 236/188/206 232/657/206
f 239/191/207 241/193/207 228/659/207 226/778/207
f 246/198/208 234/779/208 229/780/208 240/192/208
f 233/656/209 235/187/209 248/200/209 244/196/209
f 245/197/210 247/199/210 242/194/210 238/190/210
f 255/207/205 267/219/205 261/213/205 249/201/205
f 251/661/206 254/206/206 260/212/206 256/663/206
f 263/215/207 265/217/207 252/665/207 250/781/207
f 270/222/208 258/782/208 253/783/208 264/216/208
f 257/662/209 259/211/209 272/224/209 268/220/209
f 269/221/210 271/223/210 266/218/210 262/214/210
f 279/230/205 291/241/205 285/235/205 273/225/205
f 275/667/206 278/229/206 284/234/206 280/669/206
f 287/237/207 289/239/207 276/670/207 274/784/207
f 294/244/208 282/785/208 277/786/208 288/238/208
f 281/668/209 283/233/209 296/246/209 292/242/209
f 293/243/210 295/245/210 290/240/210 286/236/210
f 303/253/205 315/264/205 309/258/205 297/247/205
f 299/672/206 302/252/206 308/257/206 304/674/206
f 311/260/207 313/262/207 300/676/207 298/787/207
f 318/267/208 306/788/208 301/789/208 312/261/208
f 305/673/209 307/256/209 320/269/209 316/265/209
f 317/266/210 319/268/210 314/263/210 310/259/210
f 327/275/205 339/286/205 333/280/205 321/270/205
f 323/678/206 326/274/206 332/279/206 328/680/206
f 335/282/207 337/284/207 324/681/207 322/790/207
f 342/289/208 330/791/208 325/792/208 336/283/208
f 329/679/209 331/278/209 344/291/209 340/287/209
f 341/288/210 343/290/210 338/285/210 334/281/210
f 347/683/211 95/103/211 362/309/211
f 345/793/212 361/794/212 99/102/212
f 345/684/213 99/101/213 357/304/213
f 347/294/214 351/298/214 95/104/214
f 352/795/215 346/796/215 356/797/215
f 117/86/216 367/314/216 350/297/216
f 371/798/217 117/93/217 350/799/217
f 376/323/218 372/319/218 349/686/218
f 118/89/219 377/800/219 348/801/219
f 366/802/220 118/91/220 348/803/220
f 355/302/221 354/301/221 85/64/221 96/68/221
f 85/64/222 354/804/222 353/805/222 97/65/222
f 97/65/223 353/805/223 352/795/223 356/797/223 360/806/223
f 95/104/224 351/298/224 355/302/224 96/68/224
f 97/65/225 360/806/225 359/807/225 89/76/225
f 359/306/226 358/305/226 101/77/226 89/76/226
f 358/305/227 357/304/227 99/101/227 101/77/227
f 99/102/228 361/794/228 365/808/228 100/74/228
f 364/311/229 363/310/229 98/71/229 87/70/229
f 363/310/230 362/309/230 95/103/230 98/71/230
f 365/808/231 364/809/231 87/70/231 100/74/231
f 94/94/232 116/90/232 370/810/232 369/811/232
f 366/802/233 370/810/233 116/90/233 118/91/233
f 117/86/234 112/85/234 368/315/234 367/314/234
f 112/85/235 94/94/235 369/316/235 368/315/235
f 114/96/236 91/97/236 374/321/236 373/320/236
f 371/798/237 375/812/237 113/92/237 117/93/237
f 91/98/238 113/92/238 375/812/238 374/813/238
f 376/323/239 380/327/239 114/96/239 373/320/239 372/319/239
f 115/88/240 92/95/240 379/814/240 378/815/240
f 92/95/241 114/96/241 380/327/241 379/326/241
f 118/89/242 115/88/242 378/815/242 377/800/242
f 383/689/211 129/103/211 398/338/211
f 381/816/212 397/817/212 133/102/212
f 381/690/213 133/101/213 393/334/213
f 383/329/214 387/298/214 129/104/214
f 388/818/215 382/796/215 392/797/215
f 151/86/216 403/342/216 386/297/216
f 407/819/217 151/93/217 386/820/217
f 412/346/218 408/319/218 385/686/218
f 152/89/219 413/800/219 384/821/219
f 402/822/220 152/91/220 384/823/220
f 391/333/221 390/332/221 119/64/221 130/68/221
f 119/64/222 390/824/222 389/825/222 131/65/222
f 131/65/223 389/825/223 388/818/223 392/797/223 396/826/223
f 129/104/224 387/298/224 391/333/224 130/68/224
f 131/65/225 396/826/225 395/827/225 123/76/225
f 395/336/226 394/335/226 135/77/226 123/76/226
f 394/335/227 393/334/227 133/101/227 135/77/227
f 133/102/228 397/817/228 401/828/228 134/74/228
f 400/340/229 399/339/229 132/71/229 121/70/229
f 399/339/230 398/338/230 129/103/230 132/71/230
f 401/828/231 400/829/231 121/70/231 134/74/231
f 128/94/232 150/90/232 406/830/232 405/831/232
f 402/822/233 406/830/233 150/90/233 152/91/233
f 151/86/234 146/85/234 404/315/234 403/342/234
f 146/85/235 128/94/235 405/316/235 404/315/235
f 148/96/236 125/97/236 410/344/236 409/343/236
f 407/819/237 411/832/237 147/92/237 151/93/237
f 125/98/238 147/92/238 411/832/238 410/813/238
f 412/346/239 416/349/239 148/96/239 409/343/239 408/319/239
f 149/88/240 126/95/240 415/814/240 414/833/240
f 126/95/241 148/96/241 416/349/241 415/348/241
f 152/89/242 149/88/242 414/833/242 413/800/242
f 423/356/205 435/368/205 429/362/205 417/350/205
f 419/693/206 422/355/206 428/361/206 424/695/206
f 431/364/207 433/366/207 420/697/207 418/834/207
f 438/371/208 426/835/208 421/836/208 432/365/208
f 425/694/209 427/360/209 440/373/209 436/369/209
f 437/370/210 439/372/210 434/367/210 430/363/210
f 447/378/205 459/389/205 453/383/205 441/374/205
f 443/699/206 446/377/206 452/382/206 448/701/206
f 455/385/207 457/387/207 444/703/207 442/837/207
f 462/392/208 450/838/208 445/839/208 456/386/208
f 449/700/209 451/381/209 464/394/209 460/390/209
f 461/391/210 463/393/210 458/388/210 454/384/210
f 471/399/205 483/410/205 477/404/205 465/395/205
f 467/705/206 470/398/206 476/403/206 472/707/206
f 479/406/207 481/408/207 468/709/207 466/840/207
f 486/413/208 474/841/208 469/842/208 480/407/208
f 473/706/209 475/402/209 488/415/209 484/411/209
f 485/412/210 487/414/210 482/409/210 478/405/210
f 495/356/205 507/368/205 501/362/205 489/350/205
f 491/693/206 494/355/206 500/361/206 496/695/206
f 503/364/207 505/366/207 492/697/207 490/834/207
f 510/371/208 498/835/208 493/836/208 504/365/208
f 497/694/209 499/360/209 512/373/209 508/369/209
f 509/416/210 511/417/210 506/367/210 502/363/210
f 519/378/205 531/389/205 525/383/205 513/374/205
f 515/699/206 518/377/206 524/382/206 520/701/206
f 527/385/207 529/387/207 516/703/207 514/837/207
f 534/392/208 522/838/208 517/839/208 528/419/208
f 521/700/209 523/418/209 536/394/209 532/390/209
f 533/420/210 535/393/210 530/388/210 526/384/210
f 543/399/205 555/410/205 549/404/205 537/395/205
f 539/705/206 542/398/206 548/403/206 544/707/206
f 551/406/207 553/408/207 540/709/207 538/840/207
f 558/413/208 546/841/208 541/842/208 552/422/208
f 545/706/209 547/421/209 560/415/209 556/411/209
f 557/423/210 559/414/210 554/409/210 550/405/210
f 567/430/205 579/442/205 573/436/205 561/424/205
f 563/711/206 566/429/206 572/435/206 568/713/206
f 575/438/207 577/440/207 564/715/207 562/843/207
f 582/445/208 570/844/208 565/845/208 576/439/208
f 569/712/209 571/434/209 584/447/209 580/443/209
f 581/444/210 583/446/210 578/441/210 574/437/210
f 591/454/205 603/466/205 597/460/205 585/448/205
f 587/717/206 590/453/206 596/459/206 592/719/206
f 599/462/207 601/464/207 588/721/207 586/846/207
f 606/469/208 594/847/208 589/848/208 600/463/208
f 593/718/209 595/458/209 608/471/209 604/467/209
f 605/468/210 607/470/210 602/465/210 598/461/210
f 615/478/205 627/490/205 621/484/205 609/472/205
f 611/723/206 614/477/206 620/483/206 616/725/206
f 623/486/207 625/488/207 612/727/207 610/849/207
f 630/493/208 618/850/208 613/851/208 624/487/208
f 617/724/209 619/482/209 632/495/209 628/491/209
f 629/492/210 631/494/210 626/489/210 622/485/210
f 639/502/205 651/514/205 645/508/205 633/496/205
f 635/729/206 638/501/206 644/507/206 640/731/206
f 647/510/207 649/512/207 636/733/207 634/852/207
f 654/517/208 642/853/208 637/854/208 648/511/208
f 641/730/209 643/506/209 656/519/209 652/515/209
f 653/516/210 655/518/210 650/513/210 646/509/210
f 663/526/205 675/538/205 669/532/205 657/520/205
f 659/735/206 662/525/206 668/531/206 664/737/206
f 671/534/207 673/536/207 660/739/207 658/855/207
f 678/541/208 666/856/208 661/857/208 672/535/208
f 665/736/209 667/530/209 680/543/209 676/539/209
f 677/540/210 679/542/210 674/537/210 670/533/210
f 687/526/205 699/538/205 693/532/205 681/520/205
f 683/740/206 686/545/206 692/547/206 688/741/206
f 695/534/207 697/550/207 684/742/207 682/858/207
f 702/554/208 690/856/208 685/857/208 696/549/208
f 689/736/209 691/546/209 704/556/209 700/552/209
f 701/553/210 703/555/210 698/551/210 694/548/210
f 711/526/205 723/538/205 717/532/205 705/520/205
f 707/743/206 710/525/206 716/558/206 712/745/206
f 719/559/207 721/560/207 708/746/207 706/855/207
f 726/562/208 714/856/208 709/857/208 720/535/208
f 713/744/209 715/557/209 728/563/209 724/539/209
f 725/540/210 727/542/210 722/561/210 718/533/210
f 735/526/205 747/538/205 741/532/205 729/520/205
f 731/735/206 734/525/206 740/558/206 736/749/206
f 743/565/207 745/536/207 732/750/207 730/859/207
f 750/554/208 738/856/208 733/857/208 744/549/208
f 737/748/209 739/530/209 752/568/209 748/567/209
f 749/540/210 751/542/210 746/566/210 742/564/210
f 759/526/205 771/538/205 765/532/205 753/520/205
f 755/735/206 758/525/206 764/558/206 760/749/206
f 767/565/207 769/536/207 756/750/207 754/859/207
f 774/541/208 762/856/208 757/857/208 768/535/208
f 761/748/209 763/530/209 776/568/209 772/570/209
f 773/540/210 775/542/210 770/561/210 766/569/210
f 783/577/205 795/589/205 789/583/205 777/571/205
f 779/752/206 782/576/206 788/582/206 784/754/206
f 791/585/207 793/587/207 780/756/207 778/860/207
f 798/592/208 786/861/208 781/862/208 792/586/208
f 785/753/209 787/581/209 800/594/209 796/590/209
f 797/591/210 799/593/210 794/588/210 790/584/210
f 807/599/205 819/610/205 813/604/205 801/595/205
f 803/758/206 806/598/206 812/603/206 808/760/206
f 815/606/207 817/608/207 804/762/207 802/863/207
f 822/613/208 810/864/208 805/865/208 816/607/208
f 809/759/209 811/602/209 824/615/209 820/611/209
f 821/612/210 823/614/210 818/609/210 814/605/210
f 831/620/205 843/630/205 837/624/205 825/616/205
f 827/764/206 830/619/206 836/623/206 832/766/206
f 839/626/207 841/628/207 828/768/207 826/866/207
f 846/633/208 834/867/208 829/868/208 840/627/208
f 833/765/209 835/622/209 848/635/209 844/631/209
f 845/632/210 847/634/210 842/629/210 838/625/210
